{
	"asset":{
		"generator":"Khronos glTF Blender I/O v4.0.44",
		"version":"2.0"
	},
	"scene":0,
	"scenes":[
		{
			"name":"Scene",
			"nodes":[
				0,
				1,
				2
			]
		}
	],
	"nodes":[
		{
			"mesh":0,
			"name":"Back Fins",
			"scale":[
				0.5,
				0.5,
				0.5
			]
		},
		{
			"mesh":1,
			"name":"Wings",
			"scale":[
				0.5,
				0.5,
				0.5
			]
		},
		{
			"mesh":2,
			"name":"ADM-160_MALD_low",
			"scale":[
				0.5,
				0.5,
				0.5
			]
		}
	],
	"materials":[
		{
			"doubleSided":true,
			"name":"Back Fins",
			"normalTexture":{
				"index":0
			},
			"pbrMetallicRoughness":{
				"baseColorTexture":{
					"index":1
				},
				"metallicRoughnessTexture":{
					"index":2
				},
				"roughnessFactor":0.5
			}
		},
		{
			"doubleSided":true,
			"name":"Wings",
			"normalTexture":{
				"index":3
			},
			"pbrMetallicRoughness":{
				"baseColorTexture":{
					"index":4
				},
				"metallicRoughnessTexture":{
					"index":5
				},
				"roughnessFactor":0.5
			}
		},
		{
			"doubleSided":true,
			"name":"ADM-160_MALD",
			"normalTexture":{
				"index":6
			},
			"pbrMetallicRoughness":{
				"baseColorTexture":{
					"index":7
				},
				"metallicRoughnessTexture":{
					"index":8
				},
				"roughnessFactor":0.30000001192092896
			}
		}
	],
	"meshes":[
		{
			"name":"Cube.001",
			"primitives":[
				{
					"attributes":{
						"POSITION":0,
						"NORMAL":1,
						"TEXCOORD_0":2
					},
					"indices":3,
					"material":0
				}
			]
		},
		{
			"name":"Cube.002",
			"primitives":[
				{
					"attributes":{
						"POSITION":4,
						"NORMAL":5,
						"TEXCOORD_0":6
					},
					"indices":7,
					"material":1
				}
			]
		},
		{
			"name":"Plane.004",
			"primitives":[
				{
					"attributes":{
						"POSITION":8,
						"NORMAL":9,
						"TEXCOORD_0":10
					},
					"indices":11,
					"material":2
				}
			]
		}
	],
	"textures":[
		{
			"sampler":0,
			"source":0
		},
		{
			"sampler":0,
			"source":1
		},
		{
			"sampler":0,
			"source":2
		},
		{
			"sampler":0,
			"source":3
		},
		{
			"sampler":0,
			"source":4
		},
		{
			"sampler":0,
			"source":5
		},
		{
			"sampler":0,
			"source":6
		},
		{
			"sampler":0,
			"source":7
		},
		{
			"sampler":0,
			"source":8
		}
	],
	"images":[
		{
			"mimeType":"image/png",
			"name":"ADM160_MALD_low_Back Fins_Normal",
			"uri":"ADM160_MALD_low_Back%20Fins_Normal.png"
		},
		{
			"mimeType":"image/png",
			"name":"ADM160_MALD_low_Back Fins_BaseMap",
			"uri":"ADM160_MALD_low_Back%20Fins_BaseMap.png"
		},
		{
			"mimeType":"image/png",
			"name":"ADM160_MALD_low_Back Fins_MaskMap",
			"uri":"ADM160_MALD_low_Back%20Fins_MaskMap.png"
		},
		{
			"mimeType":"image/png",
			"name":"ADM160_MALD_low_Wings_Normal",
			"uri":"ADM160_MALD_low_Wings_Normal.png"
		},
		{
			"mimeType":"image/png",
			"name":"ADM160_MALD_low_Wings_BaseMap",
			"uri":"ADM160_MALD_low_Wings_BaseMap.png"
		},
		{
			"mimeType":"image/png",
			"name":"ADM160_MALD_low_Wings_MaskMap",
			"uri":"ADM160_MALD_low_Wings_MaskMap.png"
		},
		{
			"mimeType":"image/png",
			"name":"ADM160_MALD_low_Main Body_Normal",
			"uri":"ADM160_MALD_low_Main%20Body_Normal.png"
		},
		{
			"mimeType":"image/png",
			"name":"ADM160_MALD_low_Main Body_BaseMap",
			"uri":"ADM160_MALD_low_Main%20Body_BaseMap.png"
		},
		{
			"mimeType":"image/png",
			"name":"ADM160_MALD_low_Main Body_MaskMap",
			"uri":"ADM160_MALD_low_Main%20Body_MaskMap.png"
		}
	],
	"accessors":[
		{
			"bufferView":0,
			"componentType":5126,
			"count":116,
			"max":[
				1.2054975032806396,
				1.0859798192977905,
				-8.124105453491211
			],
			"min":[
				-1.2054975032806396,
				-1.5003557205200195,
				-9.730804443359375
			],
			"type":"VEC3"
		},
		{
			"bufferView":1,
			"componentType":5126,
			"count":116,
			"type":"VEC3"
		},
		{
			"bufferView":2,
			"componentType":5126,
			"count":116,
			"type":"VEC2"
		},
		{
			"bufferView":3,
			"componentType":5123,
			"count":252,
			"type":"SCALAR"
		},
		{
			"bufferView":4,
			"componentType":5126,
			"count":40,
			"max":[
				5.379881858825684,
				-0.26666226983070374,
				0.29263269901275635
			],
			"min":[
				-5.379881858825684,
				-0.35179880261421204,
				-0.8030973672866821
			],
			"type":"VEC3"
		},
		{
			"bufferView":5,
			"componentType":5126,
			"count":40,
			"type":"VEC3"
		},
		{
			"bufferView":6,
			"componentType":5126,
			"count":40,
			"type":"VEC2"
		},
		{
			"bufferView":7,
			"componentType":5123,
			"count":60,
			"type":"SCALAR"
		},
		{
			"bufferView":8,
			"componentType":5126,
			"count":1356,
			"max":[
				0.7592276930809021,
				1.0661156177520752,
				9.843730926513672
			],
			"min":[
				-0.7592276930809021,
				-0.912406861782074,
				-9.733980178833008
			],
			"type":"VEC3"
		},
		{
			"bufferView":9,
			"componentType":5126,
			"count":1356,
			"type":"VEC3"
		},
		{
			"bufferView":10,
			"componentType":5126,
			"count":1356,
			"type":"VEC2"
		},
		{
			"bufferView":11,
			"componentType":5123,
			"count":6204,
			"type":"SCALAR"
		}
	],
	"bufferViews":[
		{
			"buffer":0,
			"byteLength":1392,
			"byteOffset":0,
			"target":34962
		},
		{
			"buffer":0,
			"byteLength":1392,
			"byteOffset":1392,
			"target":34962
		},
		{
			"buffer":0,
			"byteLength":928,
			"byteOffset":2784,
			"target":34962
		},
		{
			"buffer":0,
			"byteLength":504,
			"byteOffset":3712,
			"target":34963
		},
		{
			"buffer":0,
			"byteLength":480,
			"byteOffset":4216,
			"target":34962
		},
		{
			"buffer":0,
			"byteLength":480,
			"byteOffset":4696,
			"target":34962
		},
		{
			"buffer":0,
			"byteLength":320,
			"byteOffset":5176,
			"target":34962
		},
		{
			"buffer":0,
			"byteLength":120,
			"byteOffset":5496,
			"target":34963
		},
		{
			"buffer":0,
			"byteLength":16272,
			"byteOffset":5616,
			"target":34962
		},
		{
			"buffer":0,
			"byteLength":16272,
			"byteOffset":21888,
			"target":34962
		},
		{
			"buffer":0,
			"byteLength":10848,
			"byteOffset":38160,
			"target":34962
		},
		{
			"buffer":0,
			"byteLength":12408,
			"byteOffset":49008,
			"target":34963
		}
	],
	"samplers":[
		{
			"magFilter":9729,
			"minFilter":9987
		}
	],
	"buffers":[
		{
			"byteLength":61416,
			"uri":"ADM-160%20MALD.bin"
		}
	]
}
