{
	"asset":{
		"generator":"Khronos glTF Blender I/O v4.0.44",
		"version":"2.0"
	},
	"scene":0,
	"scenes":[
		{
			"name":"Scene",
			"nodes":[
				0,
				1,
				2,
				3,
				4,
				5,
				6,
				7
			]
		}
	],
	"nodes":[
		{
			"mesh":0,
			"name":"Front_Wheel_low",
			"translation":[
				0,
				0.06183096766471863,
				0.43072599172592163
			]
		},
		{
			"mesh":1,
			"name":"Rear_Wheels_low",
			"scale":[
				0.8360708355903625,
				0.8360708355903625,
				0.8360708355903625
			],
			"translation":[
				0,
				0.06428453326225281,
				-0.33549177646636963
			]
		},
		{
			"mesh":2,
			"name":"Rear_Wheel_Supports_low",
			"translation":[
				0,
				0.4263906478881836,
				-0.5057500004768372
			]
		},
		{
			"mesh":3,
			"name":"Front_Wheel_Support_low",
			"translation":[
				0.00010647554881870747,
				0.25780725479125977,
				0.3822142779827118
			]
		},
		{
			"mesh":4,
			"name":"Propeller_low",
			"translation":[
				1.201364921143977e-05,
				0.45481792092323303,
				-0.7568904757499695
			]
		},
		{
			"mesh":5,
			"name":"Bayraktar_TB2_low",
			"translation":[
				0,
				0.4263906478881836,
				-0.5057500004768372
			]
		},
		{
			"mesh":6,
			"name":"Camera_Brace_low",
			"translation":[
				0,
				0.24361157417297363,
				0.16704332828521729
			]
		},
		{
			"mesh":7,
			"name":"Camera_low",
			"translation":[
				0,
				0.17159852385520935,
				0.1670433133840561
			]
		}
	],
	"meshes":[
		{
			"name":"Torus.003",
			"primitives":[
				{
					"attributes":{
						"POSITION":0,
						"NORMAL":1,
						"TEXCOORD_0":2
					},
					"indices":3
				}
			]
		},
		{
			"name":"Torus.004",
			"primitives":[
				{
					"attributes":{
						"POSITION":4,
						"NORMAL":5,
						"TEXCOORD_0":6
					},
					"indices":7
				}
			]
		},
		{
			"name":"Cylinder",
			"primitives":[
				{
					"attributes":{
						"POSITION":8,
						"NORMAL":9,
						"TEXCOORD_0":10
					},
					"indices":11
				}
			]
		},
		{
			"name":"Cylinder.001",
			"primitives":[
				{
					"attributes":{
						"POSITION":12,
						"NORMAL":13,
						"TEXCOORD_0":14
					},
					"indices":15
				}
			]
		},
		{
			"name":"Circle",
			"primitives":[
				{
					"attributes":{
						"POSITION":16,
						"NORMAL":17,
						"TEXCOORD_0":18
					},
					"indices":19
				}
			]
		},
		{
			"name":"Plane.002",
			"primitives":[
				{
					"attributes":{
						"POSITION":20,
						"NORMAL":21,
						"TEXCOORD_0":22
					},
					"indices":23
				}
			]
		},
		{
			"name":"Sphere.004",
			"primitives":[
				{
					"attributes":{
						"POSITION":24,
						"NORMAL":25,
						"TEXCOORD_0":26
					},
					"indices":27
				}
			]
		},
		{
			"name":"Sphere.001",
			"primitives":[
				{
					"attributes":{
						"POSITION":28,
						"NORMAL":29,
						"TEXCOORD_0":30
					},
					"indices":31
				}
			]
		}
	],
	"accessors":[
		{
			"bufferView":0,
			"componentType":5126,
			"count":246,
			"max":[
				0.01752510666847229,
				0.055643558502197266,
				0.052920568734407425
			],
			"min":[
				-0.01752510666847229,
				-0.05564367398619652,
				-0.05291998013854027
			],
			"type":"VEC3"
		},
		{
			"bufferView":1,
			"componentType":5126,
			"count":246,
			"type":"VEC3"
		},
		{
			"bufferView":2,
			"componentType":5126,
			"count":246,
			"type":"VEC2"
		},
		{
			"bufferView":3,
			"componentType":5123,
			"count":780,
			"type":"SCALAR"
		},
		{
			"bufferView":4,
			"componentType":5126,
			"count":470,
			"max":[
				0.3842666745185852,
				0.06130832061171532,
				0.06176780164241791
			],
			"min":[
				-0.38426652550697327,
				-0.06858446449041367,
				-0.06176769360899925
			],
			"type":"VEC3"
		},
		{
			"bufferView":5,
			"componentType":5126,
			"count":470,
			"type":"VEC3"
		},
		{
			"bufferView":6,
			"componentType":5126,
			"count":470,
			"type":"VEC2"
		},
		{
			"bufferView":7,
			"componentType":5123,
			"count":1380,
			"type":"SCALAR"
		},
		{
			"bufferView":8,
			"componentType":5126,
			"count":128,
			"max":[
				0.28508374094963074,
				-0.1646462380886078,
				0.19006909430027008
			],
			"min":[
				-0.2850843667984009,
				-0.3809000551700592,
				0.15206880867481232
			],
			"type":"VEC3"
		},
		{
			"bufferView":9,
			"componentType":5126,
			"count":128,
			"type":"VEC3"
		},
		{
			"bufferView":10,
			"componentType":5126,
			"count":128,
			"type":"VEC2"
		},
		{
			"bufferView":11,
			"componentType":5123,
			"count":348,
			"type":"SCALAR"
		},
		{
			"bufferView":12,
			"componentType":5126,
			"count":161,
			"max":[
				0.022955551743507385,
				0.0022221114486455917,
				0.06013594567775726
			],
			"min":[
				-0.023168504238128662,
				-0.20749777555465698,
				-0.00887782871723175
			],
			"type":"VEC3"
		},
		{
			"bufferView":13,
			"componentType":5126,
			"count":161,
			"type":"VEC3"
		},
		{
			"bufferView":14,
			"componentType":5126,
			"count":161,
			"type":"VEC2"
		},
		{
			"bufferView":15,
			"componentType":5123,
			"count":552,
			"type":"SCALAR"
		},
		{
			"bufferView":16,
			"componentType":5126,
			"count":208,
			"max":[
				0.31966468691825867,
				0.051122888922691345,
				0.06022196263074875
			],
			"min":[
				-0.3195600211620331,
				-0.0522526390850544,
				-0.08982807397842407
			],
			"type":"VEC3"
		},
		{
			"bufferView":17,
			"componentType":5126,
			"count":208,
			"type":"VEC3"
		},
		{
			"bufferView":18,
			"componentType":5126,
			"count":208,
			"type":"VEC2"
		},
		{
			"bufferView":19,
			"componentType":5123,
			"count":672,
			"type":"SCALAR"
		},
		{
			"bufferView":20,
			"componentType":5126,
			"count":3191,
			"max":[
				2.328652858734131,
				0.4398242235183716,
				1.2735844850540161
			],
			"min":[
				-2.328653335571289,
				-0.24286136031150818,
				-1.1656711101531982
			],
			"type":"VEC3"
		},
		{
			"bufferView":21,
			"componentType":5126,
			"count":3191,
			"type":"VEC3"
		},
		{
			"bufferView":22,
			"componentType":5126,
			"count":3191,
			"type":"VEC2"
		},
		{
			"bufferView":23,
			"componentType":5123,
			"count":12366,
			"type":"SCALAR"
		},
		{
			"bufferView":24,
			"componentType":5126,
			"count":224,
			"max":[
				0.08055078238248825,
				0.004999818746000528,
				0.0783110111951828
			],
			"min":[
				-0.08055078983306885,
				-0.11749663949012756,
				-0.07831104844808578
			],
			"type":"VEC3"
		},
		{
			"bufferView":25,
			"componentType":5126,
			"count":224,
			"type":"VEC3"
		},
		{
			"bufferView":26,
			"componentType":5126,
			"count":224,
			"type":"VEC2"
		},
		{
			"bufferView":27,
			"componentType":5123,
			"count":792,
			"type":"SCALAR"
		},
		{
			"bufferView":28,
			"componentType":5126,
			"count":198,
			"max":[
				0.06749323010444641,
				0.0767972394824028,
				0.07860706746578217
			],
			"min":[
				-0.06749323010444641,
				-0.07858246564865112,
				-0.07860706746578217
			],
			"type":"VEC3"
		},
		{
			"bufferView":29,
			"componentType":5126,
			"count":198,
			"type":"VEC3"
		},
		{
			"bufferView":30,
			"componentType":5126,
			"count":198,
			"type":"VEC2"
		},
		{
			"bufferView":31,
			"componentType":5123,
			"count":960,
			"type":"SCALAR"
		}
	],
	"bufferViews":[
		{
			"buffer":0,
			"byteLength":2952,
			"byteOffset":0,
			"target":34962
		},
		{
			"buffer":0,
			"byteLength":2952,
			"byteOffset":2952,
			"target":34962
		},
		{
			"buffer":0,
			"byteLength":1968,
			"byteOffset":5904,
			"target":34962
		},
		{
			"buffer":0,
			"byteLength":1560,
			"byteOffset":7872,
			"target":34963
		},
		{
			"buffer":0,
			"byteLength":5640,
			"byteOffset":9432,
			"target":34962
		},
		{
			"buffer":0,
			"byteLength":5640,
			"byteOffset":15072,
			"target":34962
		},
		{
			"buffer":0,
			"byteLength":3760,
			"byteOffset":20712,
			"target":34962
		},
		{
			"buffer":0,
			"byteLength":2760,
			"byteOffset":24472,
			"target":34963
		},
		{
			"buffer":0,
			"byteLength":1536,
			"byteOffset":27232,
			"target":34962
		},
		{
			"buffer":0,
			"byteLength":1536,
			"byteOffset":28768,
			"target":34962
		},
		{
			"buffer":0,
			"byteLength":1024,
			"byteOffset":30304,
			"target":34962
		},
		{
			"buffer":0,
			"byteLength":696,
			"byteOffset":31328,
			"target":34963
		},
		{
			"buffer":0,
			"byteLength":1932,
			"byteOffset":32024,
			"target":34962
		},
		{
			"buffer":0,
			"byteLength":1932,
			"byteOffset":33956,
			"target":34962
		},
		{
			"buffer":0,
			"byteLength":1288,
			"byteOffset":35888,
			"target":34962
		},
		{
			"buffer":0,
			"byteLength":1104,
			"byteOffset":37176,
			"target":34963
		},
		{
			"buffer":0,
			"byteLength":2496,
			"byteOffset":38280,
			"target":34962
		},
		{
			"buffer":0,
			"byteLength":2496,
			"byteOffset":40776,
			"target":34962
		},
		{
			"buffer":0,
			"byteLength":1664,
			"byteOffset":43272,
			"target":34962
		},
		{
			"buffer":0,
			"byteLength":1344,
			"byteOffset":44936,
			"target":34963
		},
		{
			"buffer":0,
			"byteLength":38292,
			"byteOffset":46280,
			"target":34962
		},
		{
			"buffer":0,
			"byteLength":38292,
			"byteOffset":84572,
			"target":34962
		},
		{
			"buffer":0,
			"byteLength":25528,
			"byteOffset":122864,
			"target":34962
		},
		{
			"buffer":0,
			"byteLength":24732,
			"byteOffset":148392,
			"target":34963
		},
		{
			"buffer":0,
			"byteLength":2688,
			"byteOffset":173124,
			"target":34962
		},
		{
			"buffer":0,
			"byteLength":2688,
			"byteOffset":175812,
			"target":34962
		},
		{
			"buffer":0,
			"byteLength":1792,
			"byteOffset":178500,
			"target":34962
		},
		{
			"buffer":0,
			"byteLength":1584,
			"byteOffset":180292,
			"target":34963
		},
		{
			"buffer":0,
			"byteLength":2376,
			"byteOffset":181876,
			"target":34962
		},
		{
			"buffer":0,
			"byteLength":2376,
			"byteOffset":184252,
			"target":34962
		},
		{
			"buffer":0,
			"byteLength":1584,
			"byteOffset":186628,
			"target":34962
		},
		{
			"buffer":0,
			"byteLength":1920,
			"byteOffset":188212,
			"target":34963
		}
	],
	"buffers":[
		{
			"byteLength":190132,
			"uri":"Bayraktar%20TB2.bin"
		}
	]
}
