{
	"asset":{
		"generator":"Khronos glTF Blender I/O v4.0.44",
		"version":"2.0"
	},
	"scene":0,
	"scenes":[
		{
			"name":"Scene",
			"nodes":[
				0,
				1,
				2,
				3,
				4,
				5,
				6,
				7,
				8,
				9,
				10,
				11,
				12,
				13,
				14,
				15,
				16,
				17,
				18,
				19
			]
		}
	],
	"nodes":[
		{
			"mesh":0,
			"name":"Front_Wheel_low",
			"translation":[
				0,
				0.06183096766471863,
				0.43072599172592163
			]
		},
		{
			"mesh":1,
			"name":"Rear_Wheels_low",
			"scale":[
				0.8360708355903625,
				0.8360708355903625,
				0.8360708355903625
			],
			"translation":[
				0,
				0.06428453326225281,
				-0.33549177646636963
			]
		},
		{
			"mesh":2,
			"name":"Bayraktar_TB2.001"
		},
		{
			"mesh":3,
			"name":"Rear_Wheel_Supports_low",
			"translation":[
				0,
				0.4263906478881836,
				-0.5057500004768372
			]
		},
		{
			"mesh":4,
			"name":"Front_Wheel_Support_low",
			"translation":[
				0.00010647554881870747,
				0.25780725479125977,
				0.3822142779827118
			]
		},
		{
			"mesh":5,
			"name":"Propeller_low",
			"translation":[
				1.201364921143977e-05,
				0.45481792092323303,
				-0.7568904757499695
			]
		},
		{
			"mesh":6,
			"name":"Bayraktar_TB2_low",
			"translation":[
				0,
				0.4263906478881836,
				-0.5057500004768372
			]
		},
		{
			"mesh":7,
			"name":"Camera_Brace_low",
			"translation":[
				0,
				0.24361157417297363,
				0.16704332828521729
			]
		},
		{
			"mesh":8,
			"name":"Camera_low",
			"translation":[
				0,
				0.17159852385520935,
				0.1670433133840561
			]
		},
		{
			"mesh":9,
			"name":"Front_Wheel_high",
			"translation":[
				0,
				0.06183096766471863,
				0.43072599172592163
			]
		},
		{
			"mesh":10,
			"name":"Rear_Wheels_high",
			"scale":[
				0.8360708355903625,
				0.8360708355903625,
				0.8360708355903625
			],
			"translation":[
				0,
				0.06428453326225281,
				-0.33549177646636963
			]
		},
		{
			"mesh":11,
			"name":"Rear_Wheel_Supports_high",
			"translation":[
				0,
				0.4263906478881836,
				-0.5057500004768372
			]
		},
		{
			"mesh":12,
			"name":"Front_Wheel_Support_high",
			"translation":[
				0.00010647554881870747,
				0.25780725479125977,
				0.3822142779827118
			]
		},
		{
			"mesh":13,
			"name":"Propeller_high",
			"translation":[
				1.201364921143977e-05,
				0.45481792092323303,
				-0.7568904757499695
			]
		},
		{
			"mesh":14,
			"name":"Bayraktar_TB2_high",
			"translation":[
				0,
				0.4263906478881836,
				-0.5057500004768372
			]
		},
		{
			"mesh":15,
			"name":"Camera_Brace_high",
			"translation":[
				0,
				0.24361157417297363,
				0.16704332828521729
			]
		},
		{
			"mesh":16,
			"name":"Camera_high",
			"translation":[
				0,
				0.17159852385520935,
				0.1670433133840561
			]
		},
		{
			"name":"Empty",
			"rotation":[
				0.70710688829422,
				0,
				0,
				0.7071066498756409
			],
			"translation":[
				0,
				0.4302462637424469,
				-3.3892974853515625
			]
		},
		{
			"name":"Empty.001",
			"rotation":[
				0.5,
				0.5,
				-0.5,
				0.5
			],
			"translation":[
				-2.5,
				0.4302462637424469,
				-0.3892974853515625
			]
		},
		{
			"name":"Empty.002",
			"rotation":[
				0.70710688829422,
				0,
				0,
				0.7071066498756409
			],
			"translation":[
				0,
				0.4302462637424469,
				2.682244300842285
			]
		}
	],
	"meshes":[
		{
			"name":"Torus.003",
			"primitives":[
				{
					"attributes":{
						"POSITION":0,
						"NORMAL":1,
						"TEXCOORD_0":2
					},
					"indices":3
				}
			]
		},
		{
			"name":"Torus.004",
			"primitives":[
				{
					"attributes":{
						"POSITION":4,
						"NORMAL":5,
						"TEXCOORD_0":6
					},
					"indices":7
				}
			]
		},
		{
			"name":"Plane",
			"primitives":[
				{
					"attributes":{
						"POSITION":8,
						"NORMAL":9,
						"TEXCOORD_0":10
					},
					"indices":11
				}
			]
		},
		{
			"name":"Cylinder",
			"primitives":[
				{
					"attributes":{
						"POSITION":12,
						"NORMAL":13,
						"TEXCOORD_0":14
					},
					"indices":15
				}
			]
		},
		{
			"name":"Cylinder.001",
			"primitives":[
				{
					"attributes":{
						"POSITION":16,
						"NORMAL":17,
						"TEXCOORD_0":18
					},
					"indices":19
				}
			]
		},
		{
			"name":"Circle",
			"primitives":[
				{
					"attributes":{
						"POSITION":20,
						"NORMAL":21,
						"TEXCOORD_0":22
					},
					"indices":23
				}
			]
		},
		{
			"name":"Plane.002",
			"primitives":[
				{
					"attributes":{
						"POSITION":24,
						"NORMAL":25,
						"TEXCOORD_0":26
					},
					"indices":27
				}
			]
		},
		{
			"name":"Sphere.004",
			"primitives":[
				{
					"attributes":{
						"POSITION":28,
						"NORMAL":29,
						"TEXCOORD_0":30
					},
					"indices":31
				}
			]
		},
		{
			"name":"Sphere.001",
			"primitives":[
				{
					"attributes":{
						"POSITION":32,
						"NORMAL":33,
						"TEXCOORD_0":34
					},
					"indices":35
				}
			]
		},
		{
			"name":"Torus.001",
			"primitives":[
				{
					"attributes":{
						"POSITION":36,
						"NORMAL":37,
						"TEXCOORD_0":38
					},
					"indices":39
				}
			]
		},
		{
			"name":"Torus.002",
			"primitives":[
				{
					"attributes":{
						"POSITION":40,
						"NORMAL":41,
						"TEXCOORD_0":42
					},
					"indices":43
				}
			]
		},
		{
			"name":"Cylinder.002",
			"primitives":[
				{
					"attributes":{
						"POSITION":44,
						"NORMAL":45,
						"TEXCOORD_0":46
					},
					"indices":47
				}
			]
		},
		{
			"name":"Cylinder.003",
			"primitives":[
				{
					"attributes":{
						"POSITION":48,
						"NORMAL":49,
						"TEXCOORD_0":50
					},
					"indices":51
				}
			]
		},
		{
			"name":"Circle.001",
			"primitives":[
				{
					"attributes":{
						"POSITION":52,
						"NORMAL":53,
						"TEXCOORD_0":54
					},
					"indices":55
				}
			]
		},
		{
			"name":"Plane.003",
			"primitives":[
				{
					"attributes":{
						"POSITION":56,
						"NORMAL":57,
						"TEXCOORD_0":58
					},
					"indices":59
				}
			]
		},
		{
			"name":"Sphere.002",
			"primitives":[
				{
					"attributes":{
						"POSITION":60,
						"NORMAL":61,
						"TEXCOORD_0":62
					},
					"indices":63
				}
			]
		},
		{
			"name":"Sphere.003",
			"primitives":[
				{
					"attributes":{
						"POSITION":64,
						"NORMAL":65,
						"TEXCOORD_0":66
					},
					"indices":67
				}
			]
		}
	],
	"accessors":[
		{
			"bufferView":0,
			"componentType":5126,
			"count":246,
			"max":[
				0.01752510666847229,
				0.055643558502197266,
				0.052920568734407425
			],
			"min":[
				-0.01752510666847229,
				-0.05564367398619652,
				-0.05291998013854027
			],
			"type":"VEC3"
		},
		{
			"bufferView":1,
			"componentType":5126,
			"count":246,
			"type":"VEC3"
		},
		{
			"bufferView":2,
			"componentType":5126,
			"count":246,
			"type":"VEC2"
		},
		{
			"bufferView":3,
			"componentType":5123,
			"count":780,
			"type":"SCALAR"
		},
		{
			"bufferView":4,
			"componentType":5126,
			"count":470,
			"max":[
				0.3842666745185852,
				0.06130832061171532,
				0.06176780164241791
			],
			"min":[
				-0.38426652550697327,
				-0.06858446449041367,
				-0.06176769360899925
			],
			"type":"VEC3"
		},
		{
			"bufferView":5,
			"componentType":5126,
			"count":470,
			"type":"VEC3"
		},
		{
			"bufferView":6,
			"componentType":5126,
			"count":470,
			"type":"VEC2"
		},
		{
			"bufferView":7,
			"componentType":5123,
			"count":1380,
			"type":"SCALAR"
		},
		{
			"bufferView":8,
			"componentType":5126,
			"count":930,
			"max":[
				2.328652858734131,
				0.868452787399292,
				0.7699428200721741
			],
			"min":[
				0,
				0.1835196614265442,
				-1.6716474294662476
			],
			"type":"VEC3"
		},
		{
			"bufferView":9,
			"componentType":5126,
			"count":930,
			"type":"VEC3"
		},
		{
			"bufferView":10,
			"componentType":5126,
			"count":930,
			"type":"VEC2"
		},
		{
			"bufferView":11,
			"componentType":5123,
			"count":4365,
			"type":"SCALAR"
		},
		{
			"bufferView":12,
			"componentType":5126,
			"count":128,
			"max":[
				0.28508374094963074,
				-0.1646462380886078,
				0.19006909430027008
			],
			"min":[
				-0.2850843667984009,
				-0.3809000551700592,
				0.15206880867481232
			],
			"type":"VEC3"
		},
		{
			"bufferView":13,
			"componentType":5126,
			"count":128,
			"type":"VEC3"
		},
		{
			"bufferView":14,
			"componentType":5126,
			"count":128,
			"type":"VEC2"
		},
		{
			"bufferView":15,
			"componentType":5123,
			"count":348,
			"type":"SCALAR"
		},
		{
			"bufferView":16,
			"componentType":5126,
			"count":161,
			"max":[
				0.022955551743507385,
				0.0022221114486455917,
				0.06013594567775726
			],
			"min":[
				-0.023168504238128662,
				-0.20749777555465698,
				-0.00887782871723175
			],
			"type":"VEC3"
		},
		{
			"bufferView":17,
			"componentType":5126,
			"count":161,
			"type":"VEC3"
		},
		{
			"bufferView":18,
			"componentType":5126,
			"count":161,
			"type":"VEC2"
		},
		{
			"bufferView":19,
			"componentType":5123,
			"count":552,
			"type":"SCALAR"
		},
		{
			"bufferView":20,
			"componentType":5126,
			"count":208,
			"max":[
				0.31966468691825867,
				0.051122888922691345,
				0.06022196263074875
			],
			"min":[
				-0.3195600211620331,
				-0.0522526390850544,
				-0.08982807397842407
			],
			"type":"VEC3"
		},
		{
			"bufferView":21,
			"componentType":5126,
			"count":208,
			"type":"VEC3"
		},
		{
			"bufferView":22,
			"componentType":5126,
			"count":208,
			"type":"VEC2"
		},
		{
			"bufferView":23,
			"componentType":5123,
			"count":672,
			"type":"SCALAR"
		},
		{
			"bufferView":24,
			"componentType":5126,
			"count":3191,
			"max":[
				2.328652858734131,
				0.4398242235183716,
				1.2735844850540161
			],
			"min":[
				-2.328653335571289,
				-0.24286136031150818,
				-1.1656711101531982
			],
			"type":"VEC3"
		},
		{
			"bufferView":25,
			"componentType":5126,
			"count":3191,
			"type":"VEC3"
		},
		{
			"bufferView":26,
			"componentType":5126,
			"count":3191,
			"type":"VEC2"
		},
		{
			"bufferView":27,
			"componentType":5123,
			"count":12366,
			"type":"SCALAR"
		},
		{
			"bufferView":28,
			"componentType":5126,
			"count":224,
			"max":[
				0.08055078238248825,
				0.004999818746000528,
				0.0783110111951828
			],
			"min":[
				-0.08055078983306885,
				-0.11749663949012756,
				-0.07831104844808578
			],
			"type":"VEC3"
		},
		{
			"bufferView":29,
			"componentType":5126,
			"count":224,
			"type":"VEC3"
		},
		{
			"bufferView":30,
			"componentType":5126,
			"count":224,
			"type":"VEC2"
		},
		{
			"bufferView":31,
			"componentType":5123,
			"count":792,
			"type":"SCALAR"
		},
		{
			"bufferView":32,
			"componentType":5126,
			"count":198,
			"max":[
				0.06749323010444641,
				0.0767972394824028,
				0.07860706746578217
			],
			"min":[
				-0.06749323010444641,
				-0.07858246564865112,
				-0.07860706746578217
			],
			"type":"VEC3"
		},
		{
			"bufferView":33,
			"componentType":5126,
			"count":198,
			"type":"VEC3"
		},
		{
			"bufferView":34,
			"componentType":5126,
			"count":198,
			"type":"VEC2"
		},
		{
			"bufferView":35,
			"componentType":5123,
			"count":960,
			"type":"SCALAR"
		},
		{
			"bufferView":36,
			"componentType":5126,
			"count":2575,
			"max":[
				0.01752510853111744,
				0.05170402675867081,
				0.0516812689602375
			],
			"min":[
				-0.01752510853111744,
				-0.051704127341508865,
				-0.05168069526553154
			],
			"type":"VEC3"
		},
		{
			"bufferView":37,
			"componentType":5126,
			"count":2575,
			"type":"VEC3"
		},
		{
			"bufferView":38,
			"componentType":5126,
			"count":2575,
			"type":"VEC2"
		},
		{
			"bufferView":39,
			"componentType":5123,
			"count":12480,
			"type":"SCALAR"
		},
		{
			"bufferView":40,
			"componentType":5126,
			"count":4622,
			"max":[
				0.38426673412323,
				0.05641305074095726,
				0.06002435088157654
			],
			"min":[
				-0.38426658511161804,
				-0.06368917971849442,
				-0.06002425029873848
			],
			"type":"VEC3"
		},
		{
			"bufferView":41,
			"componentType":5126,
			"count":4622,
			"type":"VEC3"
		},
		{
			"bufferView":42,
			"componentType":5126,
			"count":4622,
			"type":"VEC2"
		},
		{
			"bufferView":43,
			"componentType":5123,
			"count":22080,
			"type":"SCALAR"
		},
		{
			"bufferView":44,
			"componentType":5126,
			"count":366,
			"max":[
				0.2850837707519531,
				-0.1646462082862854,
				0.19006909430027008
			],
			"min":[
				-0.28508442640304565,
				-0.380243718624115,
				0.15277308225631714
			],
			"type":"VEC3"
		},
		{
			"bufferView":45,
			"componentType":5126,
			"count":366,
			"type":"VEC3"
		},
		{
			"bufferView":46,
			"componentType":5126,
			"count":366,
			"type":"VEC2"
		},
		{
			"bufferView":47,
			"componentType":5123,
			"count":1392,
			"type":"SCALAR"
		},
		{
			"bufferView":48,
			"componentType":5126,
			"count":496,
			"max":[
				0.022955555468797684,
				0.0020051607862114906,
				0.05827993154525757
			],
			"min":[
				-0.02316850610077381,
				-0.20656070113182068,
				-0.00801108032464981
			],
			"type":"VEC3"
		},
		{
			"bufferView":49,
			"componentType":5126,
			"count":496,
			"type":"VEC3"
		},
		{
			"bufferView":50,
			"componentType":5126,
			"count":496,
			"type":"VEC2"
		},
		{
			"bufferView":51,
			"componentType":5123,
			"count":2208,
			"type":"SCALAR"
		},
		{
			"bufferView":52,
			"componentType":5126,
			"count":635,
			"max":[
				0.31966471672058105,
				0.046076562255620956,
				0.060221970081329346
			],
			"min":[
				-0.31956005096435547,
				-0.04720630869269371,
				-0.0877058133482933
			],
			"type":"VEC3"
		},
		{
			"bufferView":53,
			"componentType":5126,
			"count":635,
			"type":"VEC3"
		},
		{
			"bufferView":54,
			"componentType":5126,
			"count":635,
			"type":"VEC2"
		},
		{
			"bufferView":55,
			"componentType":5123,
			"count":2736,
			"type":"SCALAR"
		},
		{
			"bufferView":56,
			"componentType":5126,
			"count":10397,
			"max":[
				2.32865309715271,
				0.43771055340766907,
				1.2707438468933105
			],
			"min":[
				-2.328653573989868,
				-0.24286140501499176,
				-1.1654670238494873
			],
			"type":"VEC3"
		},
		{
			"bufferView":57,
			"componentType":5126,
			"count":10397,
			"type":"VEC3"
		},
		{
			"bufferView":58,
			"componentType":5126,
			"count":10397,
			"type":"VEC2"
		},
		{
			"bufferView":59,
			"componentType":5123,
			"count":48756,
			"type":"SCALAR"
		},
		{
			"bufferView":60,
			"componentType":5126,
			"count":690,
			"max":[
				0.07946038246154785,
				0.004985964857041836,
				0.07703342288732529
			],
			"min":[
				-0.07946038991212845,
				-0.11626210063695908,
				-0.07703346014022827
			],
			"type":"VEC3"
		},
		{
			"bufferView":61,
			"componentType":5126,
			"count":690,
			"type":"VEC3"
		},
		{
			"bufferView":62,
			"componentType":5126,
			"count":690,
			"type":"VEC2"
		},
		{
			"bufferView":63,
			"componentType":5123,
			"count":3168,
			"type":"SCALAR"
		},
		{
			"bufferView":64,
			"componentType":5126,
			"count":714,
			"max":[
				0.06749323755502701,
				0.07509370148181915,
				0.07612182945013046
			],
			"min":[
				-0.06749323755502701,
				-0.07609724253416061,
				-0.07612182945013046
			],
			"type":"VEC3"
		},
		{
			"bufferView":65,
			"componentType":5126,
			"count":714,
			"type":"VEC3"
		},
		{
			"bufferView":66,
			"componentType":5126,
			"count":714,
			"type":"VEC2"
		},
		{
			"bufferView":67,
			"componentType":5123,
			"count":3840,
			"type":"SCALAR"
		}
	],
	"bufferViews":[
		{
			"buffer":0,
			"byteLength":2952,
			"byteOffset":0,
			"target":34962
		},
		{
			"buffer":0,
			"byteLength":2952,
			"byteOffset":2952,
			"target":34962
		},
		{
			"buffer":0,
			"byteLength":1968,
			"byteOffset":5904,
			"target":34962
		},
		{
			"buffer":0,
			"byteLength":1560,
			"byteOffset":7872,
			"target":34963
		},
		{
			"buffer":0,
			"byteLength":5640,
			"byteOffset":9432,
			"target":34962
		},
		{
			"buffer":0,
			"byteLength":5640,
			"byteOffset":15072,
			"target":34962
		},
		{
			"buffer":0,
			"byteLength":3760,
			"byteOffset":20712,
			"target":34962
		},
		{
			"buffer":0,
			"byteLength":2760,
			"byteOffset":24472,
			"target":34963
		},
		{
			"buffer":0,
			"byteLength":11160,
			"byteOffset":27232,
			"target":34962
		},
		{
			"buffer":0,
			"byteLength":11160,
			"byteOffset":38392,
			"target":34962
		},
		{
			"buffer":0,
			"byteLength":7440,
			"byteOffset":49552,
			"target":34962
		},
		{
			"buffer":0,
			"byteLength":8730,
			"byteOffset":56992,
			"target":34963
		},
		{
			"buffer":0,
			"byteLength":1536,
			"byteOffset":65724,
			"target":34962
		},
		{
			"buffer":0,
			"byteLength":1536,
			"byteOffset":67260,
			"target":34962
		},
		{
			"buffer":0,
			"byteLength":1024,
			"byteOffset":68796,
			"target":34962
		},
		{
			"buffer":0,
			"byteLength":696,
			"byteOffset":69820,
			"target":34963
		},
		{
			"buffer":0,
			"byteLength":1932,
			"byteOffset":70516,
			"target":34962
		},
		{
			"buffer":0,
			"byteLength":1932,
			"byteOffset":72448,
			"target":34962
		},
		{
			"buffer":0,
			"byteLength":1288,
			"byteOffset":74380,
			"target":34962
		},
		{
			"buffer":0,
			"byteLength":1104,
			"byteOffset":75668,
			"target":34963
		},
		{
			"buffer":0,
			"byteLength":2496,
			"byteOffset":76772,
			"target":34962
		},
		{
			"buffer":0,
			"byteLength":2496,
			"byteOffset":79268,
			"target":34962
		},
		{
			"buffer":0,
			"byteLength":1664,
			"byteOffset":81764,
			"target":34962
		},
		{
			"buffer":0,
			"byteLength":1344,
			"byteOffset":83428,
			"target":34963
		},
		{
			"buffer":0,
			"byteLength":38292,
			"byteOffset":84772,
			"target":34962
		},
		{
			"buffer":0,
			"byteLength":38292,
			"byteOffset":123064,
			"target":34962
		},
		{
			"buffer":0,
			"byteLength":25528,
			"byteOffset":161356,
			"target":34962
		},
		{
			"buffer":0,
			"byteLength":24732,
			"byteOffset":186884,
			"target":34963
		},
		{
			"buffer":0,
			"byteLength":2688,
			"byteOffset":211616,
			"target":34962
		},
		{
			"buffer":0,
			"byteLength":2688,
			"byteOffset":214304,
			"target":34962
		},
		{
			"buffer":0,
			"byteLength":1792,
			"byteOffset":216992,
			"target":34962
		},
		{
			"buffer":0,
			"byteLength":1584,
			"byteOffset":218784,
			"target":34963
		},
		{
			"buffer":0,
			"byteLength":2376,
			"byteOffset":220368,
			"target":34962
		},
		{
			"buffer":0,
			"byteLength":2376,
			"byteOffset":222744,
			"target":34962
		},
		{
			"buffer":0,
			"byteLength":1584,
			"byteOffset":225120,
			"target":34962
		},
		{
			"buffer":0,
			"byteLength":1920,
			"byteOffset":226704,
			"target":34963
		},
		{
			"buffer":0,
			"byteLength":30900,
			"byteOffset":228624,
			"target":34962
		},
		{
			"buffer":0,
			"byteLength":30900,
			"byteOffset":259524,
			"target":34962
		},
		{
			"buffer":0,
			"byteLength":20600,
			"byteOffset":290424,
			"target":34962
		},
		{
			"buffer":0,
			"byteLength":24960,
			"byteOffset":311024,
			"target":34963
		},
		{
			"buffer":0,
			"byteLength":55464,
			"byteOffset":335984,
			"target":34962
		},
		{
			"buffer":0,
			"byteLength":55464,
			"byteOffset":391448,
			"target":34962
		},
		{
			"buffer":0,
			"byteLength":36976,
			"byteOffset":446912,
			"target":34962
		},
		{
			"buffer":0,
			"byteLength":44160,
			"byteOffset":483888,
			"target":34963
		},
		{
			"buffer":0,
			"byteLength":4392,
			"byteOffset":528048,
			"target":34962
		},
		{
			"buffer":0,
			"byteLength":4392,
			"byteOffset":532440,
			"target":34962
		},
		{
			"buffer":0,
			"byteLength":2928,
			"byteOffset":536832,
			"target":34962
		},
		{
			"buffer":0,
			"byteLength":2784,
			"byteOffset":539760,
			"target":34963
		},
		{
			"buffer":0,
			"byteLength":5952,
			"byteOffset":542544,
			"target":34962
		},
		{
			"buffer":0,
			"byteLength":5952,
			"byteOffset":548496,
			"target":34962
		},
		{
			"buffer":0,
			"byteLength":3968,
			"byteOffset":554448,
			"target":34962
		},
		{
			"buffer":0,
			"byteLength":4416,
			"byteOffset":558416,
			"target":34963
		},
		{
			"buffer":0,
			"byteLength":7620,
			"byteOffset":562832,
			"target":34962
		},
		{
			"buffer":0,
			"byteLength":7620,
			"byteOffset":570452,
			"target":34962
		},
		{
			"buffer":0,
			"byteLength":5080,
			"byteOffset":578072,
			"target":34962
		},
		{
			"buffer":0,
			"byteLength":5472,
			"byteOffset":583152,
			"target":34963
		},
		{
			"buffer":0,
			"byteLength":124764,
			"byteOffset":588624,
			"target":34962
		},
		{
			"buffer":0,
			"byteLength":124764,
			"byteOffset":713388,
			"target":34962
		},
		{
			"buffer":0,
			"byteLength":83176,
			"byteOffset":838152,
			"target":34962
		},
		{
			"buffer":0,
			"byteLength":97512,
			"byteOffset":921328,
			"target":34963
		},
		{
			"buffer":0,
			"byteLength":8280,
			"byteOffset":1018840,
			"target":34962
		},
		{
			"buffer":0,
			"byteLength":8280,
			"byteOffset":1027120,
			"target":34962
		},
		{
			"buffer":0,
			"byteLength":5520,
			"byteOffset":1035400,
			"target":34962
		},
		{
			"buffer":0,
			"byteLength":6336,
			"byteOffset":1040920,
			"target":34963
		},
		{
			"buffer":0,
			"byteLength":8568,
			"byteOffset":1047256,
			"target":34962
		},
		{
			"buffer":0,
			"byteLength":8568,
			"byteOffset":1055824,
			"target":34962
		},
		{
			"buffer":0,
			"byteLength":5712,
			"byteOffset":1064392,
			"target":34962
		},
		{
			"buffer":0,
			"byteLength":7680,
			"byteOffset":1070104,
			"target":34963
		}
	],
	"buffers":[
		{
			"byteLength":1077784,
			"uri":"Bayraktar%20TB2_High.bin"
		}
	]
}
