{
	"asset":{
		"generator":"Khronos glTF Blender I/O v4.0.44",
		"version":"2.0"
	},
	"scene":0,
	"scenes":[
		{
			"name":"Scene",
			"nodes":[
				0,
				1,
				2,
				3,
				4,
				5,
				6,
				7,
				8
			]
		}
	],
	"nodes":[
		{
			"mesh":0,
			"name":"Camera_Hexa"
		},
		{
			"mesh":1,
			"name":"Camera_Mount_Hexa"
		},
		{
			"mesh":2,
			"name":"BR_Propellor_Hexa",
			"translation":[
				0.5528067946434021,
				0.04589487612247467,
				-0.6554222106933594
			]
		},
		{
			"mesh":3,
			"name":"BL_Propeller_Hexa",
			"translation":[
				-0.5511767864227295,
				0.04589492082595825,
				-0.6554222106933594
			]
		},
		{
			"mesh":4,
			"name":"FL_Propeller_Hexa",
			"translation":[
				-0.5511767268180847,
				0.04589492082595825,
				0.652335524559021
			]
		},
		{
			"mesh":5,
			"name":"FR_Propeller_Hexa",
			"translation":[
				0.5528068542480469,
				0.04589487612247467,
				0.652335524559021
			]
		},
		{
			"mesh":6,
			"name":"ML_Propeller_Hexa",
			"translation":[
				-0.839183509349823,
				0.04589487239718437,
				-0.0015433430671691895
			]
		},
		{
			"mesh":7,
			"name":"MR_Propeller_Hexa",
			"translation":[
				0.8408135771751404,
				0.04589487239718437,
				-0.0015433202497661114
			]
		},
		{
			"mesh":8,
			"name":"Hexacopter_Body"
		}
	],
	"materials":[
		{
			"doubleSided":true,
			"name":"Hexacopter_Body",
			"normalTexture":{
				"index":0,
				"scale":1.9999998807907104
			},
			"pbrMetallicRoughness":{
				"baseColorTexture":{
					"index":1
				},
				"metallicRoughnessTexture":{
					"index":2
				},
				"roughnessFactor":0.20000000298023224
			}
		},
		{
			"doubleSided":true,
			"name":"Hexacopter_Prop",
			"normalTexture":{
				"index":3,
				"scale":2
			},
			"pbrMetallicRoughness":{
				"baseColorTexture":{
					"index":4
				},
				"metallicRoughnessTexture":{
					"index":5
				},
				"roughnessFactor":0.5
			}
		}
	],
	"meshes":[
		{
			"name":"Mesh.009",
			"primitives":[
				{
					"attributes":{
						"COLOR_0":0,
						"POSITION":1,
						"NORMAL":2,
						"TEXCOORD_0":3
					},
					"indices":4,
					"material":0
				}
			]
		},
		{
			"name":"Mesh.013",
			"primitives":[
				{
					"attributes":{
						"COLOR_0":5,
						"POSITION":6,
						"NORMAL":7,
						"TEXCOORD_0":8
					},
					"indices":9,
					"material":0
				}
			]
		},
		{
			"name":"Mesh.003",
			"primitives":[
				{
					"attributes":{
						"COLOR_0":10,
						"POSITION":11,
						"NORMAL":12,
						"TEXCOORD_0":13
					},
					"indices":14,
					"material":1
				}
			]
		},
		{
			"name":"Mesh.004",
			"primitives":[
				{
					"attributes":{
						"COLOR_0":15,
						"POSITION":16,
						"NORMAL":17,
						"TEXCOORD_0":18
					},
					"indices":19,
					"material":1
				}
			]
		},
		{
			"name":"Mesh.005",
			"primitives":[
				{
					"attributes":{
						"COLOR_0":20,
						"POSITION":21,
						"NORMAL":22,
						"TEXCOORD_0":23
					},
					"indices":24,
					"material":1
				}
			]
		},
		{
			"name":"Mesh.006",
			"primitives":[
				{
					"attributes":{
						"COLOR_0":25,
						"POSITION":26,
						"NORMAL":27,
						"TEXCOORD_0":28
					},
					"indices":29,
					"material":1
				}
			]
		},
		{
			"name":"Mesh.023",
			"primitives":[
				{
					"attributes":{
						"COLOR_0":30,
						"POSITION":31,
						"NORMAL":32,
						"TEXCOORD_0":33
					},
					"indices":34,
					"material":1
				}
			]
		},
		{
			"name":"Mesh.024",
			"primitives":[
				{
					"attributes":{
						"COLOR_0":35,
						"POSITION":36,
						"NORMAL":37,
						"TEXCOORD_0":38
					},
					"indices":34,
					"material":1
				}
			]
		},
		{
			"name":"Mesh.035",
			"primitives":[
				{
					"attributes":{
						"COLOR_0":39,
						"POSITION":40,
						"NORMAL":41,
						"TEXCOORD_0":42
					},
					"indices":43,
					"material":0
				}
			]
		}
	],
	"textures":[
		{
			"sampler":0,
			"source":0
		},
		{
			"sampler":0,
			"source":1
		},
		{
			"sampler":0,
			"source":2
		},
		{
			"sampler":0,
			"source":3
		},
		{
			"sampler":0,
			"source":4
		},
		{
			"sampler":0,
			"source":5
		}
	],
	"images":[
		{
			"mimeType":"image/png",
			"name":"Hexacopter_Main Body_Normal",
			"uri":"Hexacopter_Main%20Body_Normal.png"
		},
		{
			"mimeType":"image/png",
			"name":"Hexacopter_Main Body_BaseMap",
			"uri":"Hexacopter_Main%20Body_BaseMap.png"
		},
		{
			"mimeType":"image/png",
			"name":"Hexacopter_Main Body_MaskMap",
			"uri":"Hexacopter_Main%20Body_MaskMap.png"
		},
		{
			"mimeType":"image/png",
			"name":"Hexacopter_Propellers_Normal",
			"uri":"Hexacopter_Propellers_Normal.png"
		},
		{
			"mimeType":"image/png",
			"name":"Hexacopter_Propellers_BaseMap",
			"uri":"Hexacopter_Propellers_BaseMap.png"
		},
		{
			"mimeType":"image/png",
			"name":"Hexacopter_Propellers_MaskMap",
			"uri":"Hexacopter_Propellers_MaskMap.png"
		}
	],
	"accessors":[
		{
			"bufferView":0,
			"componentType":5123,
			"count":360,
			"normalized":true,
			"type":"VEC4"
		},
		{
			"bufferView":1,
			"componentType":5126,
			"count":360,
			"max":[
				0.06747975945472717,
				-0.1880747228860855,
				0.10338432341814041
			],
			"min":[
				-0.10823344439268112,
				-0.3154922127723694,
				-0.026217810809612274
			],
			"type":"VEC3"
		},
		{
			"bufferView":2,
			"componentType":5126,
			"count":360,
			"type":"VEC3"
		},
		{
			"bufferView":3,
			"componentType":5126,
			"count":360,
			"type":"VEC2"
		},
		{
			"bufferView":4,
			"componentType":5123,
			"count":1260,
			"type":"SCALAR"
		},
		{
			"bufferView":5,
			"componentType":5123,
			"count":752,
			"normalized":true,
			"type":"VEC4"
		},
		{
			"bufferView":6,
			"componentType":5126,
			"count":752,
			"max":[
				0.09065080434083939,
				-0.08979380130767822,
				0.10147957503795624
			],
			"min":[
				-0.0907825380563736,
				-0.29635125398635864,
				-0.16942478716373444
			],
			"type":"VEC3"
		},
		{
			"bufferView":7,
			"componentType":5126,
			"count":752,
			"type":"VEC3"
		},
		{
			"bufferView":8,
			"componentType":5126,
			"count":752,
			"type":"VEC2"
		},
		{
			"bufferView":9,
			"componentType":5123,
			"count":2994,
			"type":"SCALAR"
		},
		{
			"bufferView":10,
			"componentType":5123,
			"count":535,
			"normalized":true,
			"type":"VEC4"
		},
		{
			"bufferView":11,
			"componentType":5126,
			"count":535,
			"max":[
				0.2644708454608917,
				0.11271077394485474,
				0.2735897898674011
			],
			"min":[
				-0.2644708752632141,
				-0.0008558339322917163,
				-0.2735895812511444
			],
			"type":"VEC3"
		},
		{
			"bufferView":12,
			"componentType":5126,
			"count":535,
			"type":"VEC3"
		},
		{
			"bufferView":13,
			"componentType":5126,
			"count":535,
			"type":"VEC2"
		},
		{
			"bufferView":14,
			"componentType":5123,
			"count":1926,
			"type":"SCALAR"
		},
		{
			"bufferView":15,
			"componentType":5123,
			"count":535,
			"normalized":true,
			"type":"VEC4"
		},
		{
			"bufferView":16,
			"componentType":5126,
			"count":535,
			"max":[
				0.27358970046043396,
				0.11271077394485474,
				0.2644708454608917
			],
			"min":[
				-0.2735895812511444,
				-0.0008558339322917163,
				-0.2644708454608917
			],
			"type":"VEC3"
		},
		{
			"bufferView":17,
			"componentType":5126,
			"count":535,
			"type":"VEC3"
		},
		{
			"bufferView":18,
			"componentType":5126,
			"count":535,
			"type":"VEC2"
		},
		{
			"bufferView":19,
			"componentType":5123,
			"count":1926,
			"type":"SCALAR"
		},
		{
			"bufferView":20,
			"componentType":5123,
			"count":535,
			"normalized":true,
			"type":"VEC4"
		},
		{
			"bufferView":21,
			"componentType":5126,
			"count":535,
			"max":[
				0.2644708454608917,
				0.11271075904369354,
				0.2735895812511444
			],
			"min":[
				-0.2644706964492798,
				-0.0008558339322917163,
				-0.27358976006507874
			],
			"type":"VEC3"
		},
		{
			"bufferView":22,
			"componentType":5126,
			"count":535,
			"type":"VEC3"
		},
		{
			"bufferView":23,
			"componentType":5126,
			"count":535,
			"type":"VEC2"
		},
		{
			"bufferView":24,
			"componentType":5123,
			"count":1926,
			"type":"SCALAR"
		},
		{
			"bufferView":25,
			"componentType":5123,
			"count":535,
			"normalized":true,
			"type":"VEC4"
		},
		{
			"bufferView":26,
			"componentType":5126,
			"count":535,
			"max":[
				0.273589551448822,
				0.11271075904369354,
				0.2644708454608917
			],
			"min":[
				-0.27358973026275635,
				-0.0008558339322917163,
				-0.2644708752632141
			],
			"type":"VEC3"
		},
		{
			"bufferView":27,
			"componentType":5126,
			"count":535,
			"type":"VEC3"
		},
		{
			"bufferView":28,
			"componentType":5126,
			"count":535,
			"type":"VEC2"
		},
		{
			"bufferView":29,
			"componentType":5123,
			"count":1926,
			"type":"SCALAR"
		},
		{
			"bufferView":30,
			"componentType":5123,
			"count":535,
			"normalized":true,
			"type":"VEC4"
		},
		{
			"bufferView":31,
			"componentType":5126,
			"count":535,
			"max":[
				0.04534696415066719,
				0.11271075904369354,
				0.3698663115501404
			],
			"min":[
				-0.045346662402153015,
				-0.0008558339322917163,
				-0.3698670268058777
			],
			"type":"VEC3"
		},
		{
			"bufferView":32,
			"componentType":5126,
			"count":535,
			"type":"VEC3"
		},
		{
			"bufferView":33,
			"componentType":5126,
			"count":535,
			"type":"VEC2"
		},
		{
			"bufferView":34,
			"componentType":5123,
			"count":1926,
			"type":"SCALAR"
		},
		{
			"bufferView":35,
			"componentType":5123,
			"count":535,
			"normalized":true,
			"type":"VEC4"
		},
		{
			"bufferView":36,
			"componentType":5126,
			"count":535,
			"max":[
				0.04534696415066719,
				0.11271075904369354,
				0.3698663115501404
			],
			"min":[
				-0.045346662402153015,
				-0.0008558339322917163,
				-0.3698670268058777
			],
			"type":"VEC3"
		},
		{
			"bufferView":37,
			"componentType":5126,
			"count":535,
			"type":"VEC3"
		},
		{
			"bufferView":38,
			"componentType":5126,
			"count":535,
			"type":"VEC2"
		},
		{
			"bufferView":39,
			"componentType":5123,
			"count":7393,
			"normalized":true,
			"type":"VEC4"
		},
		{
			"bufferView":40,
			"componentType":5126,
			"count":7393,
			"max":[
				0.90589839220047,
				0.14286744594573975,
				0.7179033160209656
			],
			"min":[
				-0.9042683243751526,
				-0.336922287940979,
				-0.720990002155304
			],
			"type":"VEC3"
		},
		{
			"bufferView":41,
			"componentType":5126,
			"count":7393,
			"type":"VEC3"
		},
		{
			"bufferView":42,
			"componentType":5126,
			"count":7393,
			"type":"VEC2"
		},
		{
			"bufferView":43,
			"componentType":5123,
			"count":30216,
			"type":"SCALAR"
		}
	],
	"bufferViews":[
		{
			"buffer":0,
			"byteLength":2880,
			"byteOffset":0,
			"target":34962
		},
		{
			"buffer":0,
			"byteLength":4320,
			"byteOffset":2880,
			"target":34962
		},
		{
			"buffer":0,
			"byteLength":4320,
			"byteOffset":7200,
			"target":34962
		},
		{
			"buffer":0,
			"byteLength":2880,
			"byteOffset":11520,
			"target":34962
		},
		{
			"buffer":0,
			"byteLength":2520,
			"byteOffset":14400,
			"target":34963
		},
		{
			"buffer":0,
			"byteLength":6016,
			"byteOffset":16920,
			"target":34962
		},
		{
			"buffer":0,
			"byteLength":9024,
			"byteOffset":22936,
			"target":34962
		},
		{
			"buffer":0,
			"byteLength":9024,
			"byteOffset":31960,
			"target":34962
		},
		{
			"buffer":0,
			"byteLength":6016,
			"byteOffset":40984,
			"target":34962
		},
		{
			"buffer":0,
			"byteLength":5988,
			"byteOffset":47000,
			"target":34963
		},
		{
			"buffer":0,
			"byteLength":4280,
			"byteOffset":52988,
			"target":34962
		},
		{
			"buffer":0,
			"byteLength":6420,
			"byteOffset":57268,
			"target":34962
		},
		{
			"buffer":0,
			"byteLength":6420,
			"byteOffset":63688,
			"target":34962
		},
		{
			"buffer":0,
			"byteLength":4280,
			"byteOffset":70108,
			"target":34962
		},
		{
			"buffer":0,
			"byteLength":3852,
			"byteOffset":74388,
			"target":34963
		},
		{
			"buffer":0,
			"byteLength":4280,
			"byteOffset":78240,
			"target":34962
		},
		{
			"buffer":0,
			"byteLength":6420,
			"byteOffset":82520,
			"target":34962
		},
		{
			"buffer":0,
			"byteLength":6420,
			"byteOffset":88940,
			"target":34962
		},
		{
			"buffer":0,
			"byteLength":4280,
			"byteOffset":95360,
			"target":34962
		},
		{
			"buffer":0,
			"byteLength":3852,
			"byteOffset":99640,
			"target":34963
		},
		{
			"buffer":0,
			"byteLength":4280,
			"byteOffset":103492,
			"target":34962
		},
		{
			"buffer":0,
			"byteLength":6420,
			"byteOffset":107772,
			"target":34962
		},
		{
			"buffer":0,
			"byteLength":6420,
			"byteOffset":114192,
			"target":34962
		},
		{
			"buffer":0,
			"byteLength":4280,
			"byteOffset":120612,
			"target":34962
		},
		{
			"buffer":0,
			"byteLength":3852,
			"byteOffset":124892,
			"target":34963
		},
		{
			"buffer":0,
			"byteLength":4280,
			"byteOffset":128744,
			"target":34962
		},
		{
			"buffer":0,
			"byteLength":6420,
			"byteOffset":133024,
			"target":34962
		},
		{
			"buffer":0,
			"byteLength":6420,
			"byteOffset":139444,
			"target":34962
		},
		{
			"buffer":0,
			"byteLength":4280,
			"byteOffset":145864,
			"target":34962
		},
		{
			"buffer":0,
			"byteLength":3852,
			"byteOffset":150144,
			"target":34963
		},
		{
			"buffer":0,
			"byteLength":4280,
			"byteOffset":153996,
			"target":34962
		},
		{
			"buffer":0,
			"byteLength":6420,
			"byteOffset":158276,
			"target":34962
		},
		{
			"buffer":0,
			"byteLength":6420,
			"byteOffset":164696,
			"target":34962
		},
		{
			"buffer":0,
			"byteLength":4280,
			"byteOffset":171116,
			"target":34962
		},
		{
			"buffer":0,
			"byteLength":3852,
			"byteOffset":175396,
			"target":34963
		},
		{
			"buffer":0,
			"byteLength":4280,
			"byteOffset":179248,
			"target":34962
		},
		{
			"buffer":0,
			"byteLength":6420,
			"byteOffset":183528,
			"target":34962
		},
		{
			"buffer":0,
			"byteLength":6420,
			"byteOffset":189948,
			"target":34962
		},
		{
			"buffer":0,
			"byteLength":4280,
			"byteOffset":196368,
			"target":34962
		},
		{
			"buffer":0,
			"byteLength":59144,
			"byteOffset":200648,
			"target":34962
		},
		{
			"buffer":0,
			"byteLength":88716,
			"byteOffset":259792,
			"target":34962
		},
		{
			"buffer":0,
			"byteLength":88716,
			"byteOffset":348508,
			"target":34962
		},
		{
			"buffer":0,
			"byteLength":59144,
			"byteOffset":437224,
			"target":34962
		},
		{
			"buffer":0,
			"byteLength":60432,
			"byteOffset":496368,
			"target":34963
		}
	],
	"samplers":[
		{
			"magFilter":9729,
			"minFilter":9987
		}
	],
	"buffers":[
		{
			"byteLength":556800,
			"uri":"Hexacopter.bin"
		}
	]
}
