{
	"asset":{
		"generator":"Khronos glTF Blender I/O v4.0.44",
		"version":"2.0"
	},
	"scene":0,
	"scenes":[
		{
			"name":"Scene",
			"nodes":[
				0,
				1,
				2,
				3,
				4,
				5,
				6,
				7,
				8,
				9,
				10,
				11,
				12,
				13,
				14,
				15,
				16
			]
		}
	],
	"nodes":[
		{
			"mesh":0,
			"name":"Blade"
		},
		{
			"mesh":1,
			"name":"Pole",
			"translation":[
				-0.9971662163734436,
				-0.3839718997478485,
				0
			]
		},
		{
			"mesh":2,
			"name":"Inner Tube"
		},
		{
			"name":"Side Tubes",
			"translation":[
				-0.9666117429733276,
				1.582694411277771,
				-0.05563756823539734
			]
		},
		{
			"mesh":3,
			"name":"Side Tube Brace",
			"translation":[
				-0.9666117429733276,
				1.582694411277771,
				-0.05563756823539734
			]
		},
		{
			"name":"Back Tube",
			"translation":[
				-1.0753535032272339,
				1.4176687002182007,
				0
			]
		},
		{
			"name":"Top Tube",
			"translation":[
				-1.1742463111877441,
				1.8962210416793823,
				0
			]
		},
		{
			"mesh":4,
			"name":"Back Tube Brace",
			"translation":[
				0.001246813451871276,
				-0.0020260720048099756,
				-0.003260429482907057
			]
		},
		{
			"mesh":5,
			"name":"Top Tube Braces",
			"translation":[
				-1.1742463111877441,
				1.8962210416793823,
				0
			]
		},
		{
			"mesh":6,
			"name":"Inner Section"
		},
		{
			"mesh":7,
			"name":"Side Tube Brace Bottom",
			"rotation":[
				0,
				0,
				-0.2676573097705841,
				0.9635142683982849
			],
			"translation":[
				-0.896986186504364,
				1.4931678771972656,
				0
			]
		},
		{
			"mesh":8,
			"name":"Back Inner Tube"
		},
		{
			"mesh":9,
			"name":"Triggers",
			"translation":[
				-0.940214991569519,
				0.8249696493148804,
				0
			]
		},
		{
			"name":"Bottom Tube",
			"translation":[
				-1.0632978677749634,
				-1.6797058582305908,
				-0.004517605062574148
			]
		},
		{
			"mesh":10,
			"name":"Bottom Tube Rings",
			"translation":[
				-1.0632978677749634,
				-1.6797058582305908,
				-0.004517605062574148
			]
		},
		{
			"mesh":11,
			"name":"Bottom Plates",
			"translation":[
				-0.9971662163734436,
				-0.3839718997478485,
				0
			]
		},
		{
			"mesh":12,
			"name":"Bottom Inner Plate",
			"translation":[
				-0.9971662163734436,
				-0.3839718997478485,
				0
			]
		}
	],
	"materials":[
		{
			"doubleSided":true,
			"name":"Material",
			"pbrMetallicRoughness":{
				"baseColorFactor":[
					0.800000011920929,
					0.800000011920929,
					0.800000011920929,
					1
				],
				"metallicFactor":0,
				"roughnessFactor":0.4000000059604645
			}
		},
		{
			"doubleSided":true,
			"emissiveFactor":[
				0.08527782931923866,
				0.3138493224978447,
				0.09214042313396931
			],
			"name":"Tubes",
			"pbrMetallicRoughness":{
				"baseColorFactor":[
					0,
					0,
					0,
					1
				]
			}
		},
		{
			"doubleSided":true,
			"name":"Dirty Tube",
			"pbrMetallicRoughness":{}
		}
	],
	"meshes":[
		{
			"name":"Cube.003",
			"primitives":[
				{
					"attributes":{
						"COLOR_0":0,
						"POSITION":1,
						"NORMAL":2,
						"TEXCOORD_0":3
					},
					"indices":4,
					"material":0
				},
				{
					"attributes":{
						"COLOR_0":5,
						"POSITION":6,
						"NORMAL":7,
						"TEXCOORD_0":8
					},
					"indices":9,
					"material":1
				}
			]
		},
		{
			"name":"Cylinder.002",
			"primitives":[
				{
					"attributes":{
						"COLOR_0":10,
						"POSITION":11,
						"NORMAL":12,
						"TEXCOORD_0":13
					},
					"indices":14,
					"material":0
				},
				{
					"attributes":{
						"COLOR_0":15,
						"POSITION":16,
						"NORMAL":17,
						"TEXCOORD_0":18
					},
					"indices":19,
					"material":1
				}
			]
		},
		{
			"name":"Cube.006",
			"primitives":[
				{
					"attributes":{
						"POSITION":20,
						"NORMAL":21,
						"TEXCOORD_0":22
					},
					"indices":23,
					"material":2
				}
			]
		},
		{
			"name":"NurbsPath.004",
			"primitives":[
				{
					"attributes":{
						"POSITION":24,
						"NORMAL":25,
						"TEXCOORD_0":26
					},
					"indices":27,
					"material":0
				}
			]
		},
		{
			"name":"Cube.004",
			"primitives":[
				{
					"attributes":{
						"COLOR_0":28,
						"POSITION":29,
						"NORMAL":30,
						"TEXCOORD_0":31
					},
					"indices":32
				}
			]
		},
		{
			"name":"NurbsPath.003",
			"primitives":[
				{
					"attributes":{
						"POSITION":33,
						"NORMAL":34,
						"TEXCOORD_0":35
					},
					"indices":36
				}
			]
		},
		{
			"name":"Cube.005",
			"primitives":[
				{
					"attributes":{
						"COLOR_0":37,
						"POSITION":38,
						"NORMAL":39,
						"TEXCOORD_0":40
					},
					"indices":41,
					"material":0
				},
				{
					"attributes":{
						"COLOR_0":42,
						"POSITION":43,
						"NORMAL":44,
						"TEXCOORD_0":45
					},
					"indices":46,
					"material":1
				}
			]
		},
		{
			"name":"Cube",
			"primitives":[
				{
					"attributes":{
						"POSITION":47,
						"NORMAL":48,
						"TEXCOORD_0":49
					},
					"indices":50
				}
			]
		},
		{
			"name":"Cube.007",
			"primitives":[
				{
					"attributes":{
						"COLOR_0":51,
						"POSITION":52,
						"NORMAL":53,
						"TEXCOORD_0":54
					},
					"indices":55,
					"material":1
				}
			]
		},
		{
			"name":"Cube.008",
			"primitives":[
				{
					"attributes":{
						"POSITION":56,
						"NORMAL":57,
						"TEXCOORD_0":58
					},
					"indices":59
				}
			]
		},
		{
			"name":"NurbsPath.006",
			"primitives":[
				{
					"attributes":{
						"POSITION":60,
						"NORMAL":61,
						"TEXCOORD_0":62
					},
					"indices":63
				}
			]
		},
		{
			"name":"Cylinder.003",
			"primitives":[
				{
					"attributes":{
						"COLOR_0":64,
						"POSITION":65,
						"NORMAL":66,
						"TEXCOORD_0":67
					},
					"indices":68,
					"material":0
				}
			]
		},
		{
			"name":"Cylinder.001",
			"primitives":[
				{
					"attributes":{
						"COLOR_0":69,
						"POSITION":70,
						"NORMAL":71,
						"TEXCOORD_0":72
					},
					"indices":73,
					"material":0
				}
			]
		}
	],
	"accessors":[
		{
			"bufferView":0,
			"componentType":5123,
			"count":2701,
			"normalized":true,
			"type":"VEC4"
		},
		{
			"bufferView":1,
			"componentType":5126,
			"count":2701,
			"max":[
				1.6963419914245605,
				2.3057825565338135,
				0
			],
			"min":[
				-1.6679916381835938,
				0.8256007432937622,
				-0.05558275431394577
			],
			"type":"VEC3"
		},
		{
			"bufferView":2,
			"componentType":5126,
			"count":2701,
			"type":"VEC3"
		},
		{
			"bufferView":3,
			"componentType":5126,
			"count":2701,
			"type":"VEC2"
		},
		{
			"bufferView":4,
			"componentType":5123,
			"count":7332,
			"type":"SCALAR"
		},
		{
			"bufferView":5,
			"componentType":5123,
			"count":48,
			"normalized":true,
			"type":"VEC4"
		},
		{
			"bufferView":6,
			"componentType":5126,
			"count":48,
			"max":[
				0.15946537256240845,
				2.181767702102661,
				-0.016547083854675293
			],
			"min":[
				-0.8370065689086914,
				1.9527381658554077,
				-0.019566241651773453
			],
			"type":"VEC3"
		},
		{
			"bufferView":7,
			"componentType":5126,
			"count":48,
			"type":"VEC3"
		},
		{
			"bufferView":8,
			"componentType":5126,
			"count":48,
			"type":"VEC2"
		},
		{
			"bufferView":9,
			"componentType":5123,
			"count":102,
			"type":"SCALAR"
		},
		{
			"bufferView":10,
			"componentType":5123,
			"count":2015,
			"normalized":true,
			"type":"VEC4"
		},
		{
			"bufferView":11,
			"componentType":5126,
			"count":2015,
			"max":[
				0.2818058729171753,
				1.2159152030944824,
				0.09127232432365417
			],
			"min":[
				-0.1619889736175537,
				-2.019155502319336,
				-0.09127233922481537
			],
			"type":"VEC3"
		},
		{
			"bufferView":12,
			"componentType":5126,
			"count":2015,
			"type":"VEC3"
		},
		{
			"bufferView":13,
			"componentType":5126,
			"count":2015,
			"type":"VEC2"
		},
		{
			"bufferView":14,
			"componentType":5123,
			"count":5724,
			"type":"SCALAR"
		},
		{
			"bufferView":15,
			"componentType":5123,
			"count":18,
			"normalized":true,
			"type":"VEC4"
		},
		{
			"bufferView":16,
			"componentType":5126,
			"count":18,
			"max":[
				-0.031076256185770035,
				-1.639296531677246,
				0.03188243508338928
			],
			"min":[
				-0.13342860341072083,
				-1.8417409658432007,
				-0.03188192844390869
			],
			"type":"VEC3"
		},
		{
			"bufferView":17,
			"componentType":5126,
			"count":18,
			"type":"VEC3"
		},
		{
			"bufferView":18,
			"componentType":5126,
			"count":18,
			"type":"VEC2"
		},
		{
			"bufferView":19,
			"componentType":5123,
			"count":48,
			"type":"SCALAR"
		},
		{
			"bufferView":20,
			"componentType":5126,
			"count":99,
			"max":[
				-0.92500239610672,
				1.3611737489700317,
				0.046786122024059296
			],
			"min":[
				-1.018574833869934,
				1.0166995525360107,
				-0.04678630828857422
			],
			"type":"VEC3"
		},
		{
			"bufferView":21,
			"componentType":5126,
			"count":99,
			"type":"VEC3"
		},
		{
			"bufferView":22,
			"componentType":5126,
			"count":99,
			"type":"VEC2"
		},
		{
			"bufferView":23,
			"componentType":5123,
			"count":384,
			"type":"SCALAR"
		},
		{
			"bufferView":24,
			"componentType":5126,
			"count":1408,
			"max":[
				0.0011683329939842224,
				0.3279695212841034,
				0.043376434594392776
			],
			"min":[
				-0.12300334125757217,
				0.08635732531547546,
				-0.012225808575749397
			],
			"type":"VEC3"
		},
		{
			"bufferView":25,
			"componentType":5126,
			"count":1408,
			"type":"VEC3"
		},
		{
			"bufferView":26,
			"componentType":5126,
			"count":1408,
			"type":"VEC2"
		},
		{
			"bufferView":27,
			"componentType":5123,
			"count":3540,
			"type":"SCALAR"
		},
		{
			"bufferView":28,
			"componentType":5123,
			"count":24,
			"normalized":true,
			"type":"VEC4"
		},
		{
			"bufferView":29,
			"componentType":5126,
			"count":24,
			"max":[
				-1.0101574659347534,
				1.4604313373565674,
				-0.011901084333658218
			],
			"min":[
				-1.077996850013733,
				1.392591953277588,
				-0.03832182660698891
			],
			"type":"VEC3"
		},
		{
			"bufferView":30,
			"componentType":5126,
			"count":24,
			"type":"VEC3"
		},
		{
			"bufferView":31,
			"componentType":5126,
			"count":24,
			"type":"VEC2"
		},
		{
			"bufferView":32,
			"componentType":5123,
			"count":36,
			"type":"SCALAR"
		},
		{
			"bufferView":33,
			"componentType":5126,
			"count":686,
			"max":[
				0.026175329461693764,
				0.12247960269451141,
				0.02382669225335121
			],
			"min":[
				-0.14860832691192627,
				-0.013393724337220192,
				-0.023827223107218742
			],
			"type":"VEC3"
		},
		{
			"bufferView":34,
			"componentType":5126,
			"count":686,
			"type":"VEC3"
		},
		{
			"bufferView":35,
			"componentType":5126,
			"count":686,
			"type":"VEC2"
		},
		{
			"bufferView":36,
			"componentType":5123,
			"count":2304,
			"type":"SCALAR"
		},
		{
			"bufferView":37,
			"componentType":5123,
			"count":512,
			"normalized":true,
			"type":"VEC4"
		},
		{
			"bufferView":38,
			"componentType":5126,
			"count":512,
			"max":[
				-0.2913695275783539,
				2.211995840072632,
				0
			],
			"min":[
				-1.1676788330078125,
				0.9109011888504028,
				-0.04539654031395912
			],
			"type":"VEC3"
		},
		{
			"bufferView":39,
			"componentType":5126,
			"count":512,
			"type":"VEC3"
		},
		{
			"bufferView":40,
			"componentType":5126,
			"count":512,
			"type":"VEC2"
		},
		{
			"bufferView":41,
			"componentType":5123,
			"count":1644,
			"type":"SCALAR"
		},
		{
			"bufferView":42,
			"componentType":5123,
			"count":13,
			"normalized":true,
			"type":"VEC4"
		},
		{
			"bufferView":43,
			"componentType":5126,
			"count":13,
			"max":[
				-0.8639458417892456,
				1.8454384803771973,
				-0.014115480706095695
			],
			"min":[
				-0.9530578851699829,
				1.775199294090271,
				-0.01411549560725689
			],
			"type":"VEC3"
		},
		{
			"bufferView":44,
			"componentType":5126,
			"count":13,
			"type":"VEC3"
		},
		{
			"bufferView":45,
			"componentType":5126,
			"count":13,
			"type":"VEC2"
		},
		{
			"bufferView":46,
			"componentType":5123,
			"count":33,
			"type":"SCALAR"
		},
		{
			"bufferView":47,
			"componentType":5126,
			"count":104,
			"max":[
				0.02341439761221409,
				0.014106577262282372,
				0.04859132319688797
			],
			"min":[
				-0.10036331415176392,
				-0.053800977766513824,
				-0.04858532175421715
			],
			"type":"VEC3"
		},
		{
			"bufferView":48,
			"componentType":5126,
			"count":104,
			"type":"VEC3"
		},
		{
			"bufferView":49,
			"componentType":5126,
			"count":104,
			"type":"VEC2"
		},
		{
			"bufferView":50,
			"componentType":5123,
			"count":252,
			"type":"SCALAR"
		},
		{
			"bufferView":51,
			"componentType":5123,
			"count":24,
			"normalized":true,
			"type":"VEC4"
		},
		{
			"bufferView":52,
			"componentType":5126,
			"count":24,
			"max":[
				-1.0148937702178955,
				1.3252286911010742,
				0.02435346320271492
			],
			"min":[
				-1.063600778579712,
				1.0580471754074097,
				-0.02435346320271492
			],
			"type":"VEC3"
		},
		{
			"bufferView":53,
			"componentType":5126,
			"count":24,
			"type":"VEC3"
		},
		{
			"bufferView":54,
			"componentType":5126,
			"count":24,
			"type":"VEC2"
		},
		{
			"bufferView":55,
			"componentType":5123,
			"count":72,
			"type":"SCALAR"
		},
		{
			"bufferView":56,
			"componentType":5126,
			"count":110,
			"max":[
				0.037049468606710434,
				0.061425935477018356,
				0.01987430453300476
			],
			"min":[
				-0.12061702460050583,
				-0.07100623846054077,
				-0.01987430453300476
			],
			"type":"VEC3"
		},
		{
			"bufferView":57,
			"componentType":5126,
			"count":110,
			"type":"VEC3"
		},
		{
			"bufferView":58,
			"componentType":5126,
			"count":110,
			"type":"VEC2"
		},
		{
			"bufferView":59,
			"componentType":5123,
			"count":228,
			"type":"SCALAR"
		},
		{
			"bufferView":60,
			"componentType":5126,
			"count":976,
			"max":[
				0.041907768696546555,
				0.00488363578915596,
				0.07288587093353271
			],
			"min":[
				-0.07440397888422012,
				-0.28189122676849365,
				-0.06385060399770737
			],
			"type":"VEC3"
		},
		{
			"bufferView":61,
			"componentType":5126,
			"count":976,
			"type":"VEC3"
		},
		{
			"bufferView":62,
			"componentType":5126,
			"count":976,
			"type":"VEC2"
		},
		{
			"bufferView":63,
			"componentType":5123,
			"count":2880,
			"type":"SCALAR"
		},
		{
			"bufferView":64,
			"componentType":5123,
			"count":388,
			"normalized":true,
			"type":"VEC4"
		},
		{
			"bufferView":65,
			"componentType":5126,
			"count":388,
			"max":[
				0.14227573573589325,
				-1.5573418140411377,
				0.0703645795583725
			],
			"min":[
				-0.06440375745296478,
				-1.8879995346069336,
				-0.0703645795583725
			],
			"type":"VEC3"
		},
		{
			"bufferView":66,
			"componentType":5126,
			"count":388,
			"type":"VEC3"
		},
		{
			"bufferView":67,
			"componentType":5126,
			"count":388,
			"type":"VEC2"
		},
		{
			"bufferView":68,
			"componentType":5123,
			"count":1098,
			"type":"SCALAR"
		},
		{
			"bufferView":69,
			"componentType":5123,
			"count":268,
			"normalized":true,
			"type":"VEC4"
		},
		{
			"bufferView":70,
			"componentType":5126,
			"count":268,
			"max":[
				0.2259019911289215,
				-1.615525245666504,
				0.010148543864488602
			],
			"min":[
				-0.06703647971153259,
				-1.95553457736969,
				-0.009884662926197052
			],
			"type":"VEC3"
		},
		{
			"bufferView":71,
			"componentType":5126,
			"count":268,
			"type":"VEC3"
		},
		{
			"bufferView":72,
			"componentType":5126,
			"count":268,
			"type":"VEC2"
		},
		{
			"bufferView":73,
			"componentType":5123,
			"count":504,
			"type":"SCALAR"
		}
	],
	"bufferViews":[
		{
			"buffer":0,
			"byteLength":21608,
			"byteOffset":0,
			"target":34962
		},
		{
			"buffer":0,
			"byteLength":32412,
			"byteOffset":21608,
			"target":34962
		},
		{
			"buffer":0,
			"byteLength":32412,
			"byteOffset":54020,
			"target":34962
		},
		{
			"buffer":0,
			"byteLength":21608,
			"byteOffset":86432,
			"target":34962
		},
		{
			"buffer":0,
			"byteLength":14664,
			"byteOffset":108040,
			"target":34963
		},
		{
			"buffer":0,
			"byteLength":384,
			"byteOffset":122704,
			"target":34962
		},
		{
			"buffer":0,
			"byteLength":576,
			"byteOffset":123088,
			"target":34962
		},
		{
			"buffer":0,
			"byteLength":576,
			"byteOffset":123664,
			"target":34962
		},
		{
			"buffer":0,
			"byteLength":384,
			"byteOffset":124240,
			"target":34962
		},
		{
			"buffer":0,
			"byteLength":204,
			"byteOffset":124624,
			"target":34963
		},
		{
			"buffer":0,
			"byteLength":16120,
			"byteOffset":124828,
			"target":34962
		},
		{
			"buffer":0,
			"byteLength":24180,
			"byteOffset":140948,
			"target":34962
		},
		{
			"buffer":0,
			"byteLength":24180,
			"byteOffset":165128,
			"target":34962
		},
		{
			"buffer":0,
			"byteLength":16120,
			"byteOffset":189308,
			"target":34962
		},
		{
			"buffer":0,
			"byteLength":11448,
			"byteOffset":205428,
			"target":34963
		},
		{
			"buffer":0,
			"byteLength":144,
			"byteOffset":216876,
			"target":34962
		},
		{
			"buffer":0,
			"byteLength":216,
			"byteOffset":217020,
			"target":34962
		},
		{
			"buffer":0,
			"byteLength":216,
			"byteOffset":217236,
			"target":34962
		},
		{
			"buffer":0,
			"byteLength":144,
			"byteOffset":217452,
			"target":34962
		},
		{
			"buffer":0,
			"byteLength":96,
			"byteOffset":217596,
			"target":34963
		},
		{
			"buffer":0,
			"byteLength":1188,
			"byteOffset":217692,
			"target":34962
		},
		{
			"buffer":0,
			"byteLength":1188,
			"byteOffset":218880,
			"target":34962
		},
		{
			"buffer":0,
			"byteLength":792,
			"byteOffset":220068,
			"target":34962
		},
		{
			"buffer":0,
			"byteLength":768,
			"byteOffset":220860,
			"target":34963
		},
		{
			"buffer":0,
			"byteLength":16896,
			"byteOffset":221628,
			"target":34962
		},
		{
			"buffer":0,
			"byteLength":16896,
			"byteOffset":238524,
			"target":34962
		},
		{
			"buffer":0,
			"byteLength":11264,
			"byteOffset":255420,
			"target":34962
		},
		{
			"buffer":0,
			"byteLength":7080,
			"byteOffset":266684,
			"target":34963
		},
		{
			"buffer":0,
			"byteLength":192,
			"byteOffset":273764,
			"target":34962
		},
		{
			"buffer":0,
			"byteLength":288,
			"byteOffset":273956,
			"target":34962
		},
		{
			"buffer":0,
			"byteLength":288,
			"byteOffset":274244,
			"target":34962
		},
		{
			"buffer":0,
			"byteLength":192,
			"byteOffset":274532,
			"target":34962
		},
		{
			"buffer":0,
			"byteLength":72,
			"byteOffset":274724,
			"target":34963
		},
		{
			"buffer":0,
			"byteLength":8232,
			"byteOffset":274796,
			"target":34962
		},
		{
			"buffer":0,
			"byteLength":8232,
			"byteOffset":283028,
			"target":34962
		},
		{
			"buffer":0,
			"byteLength":5488,
			"byteOffset":291260,
			"target":34962
		},
		{
			"buffer":0,
			"byteLength":4608,
			"byteOffset":296748,
			"target":34963
		},
		{
			"buffer":0,
			"byteLength":4096,
			"byteOffset":301356,
			"target":34962
		},
		{
			"buffer":0,
			"byteLength":6144,
			"byteOffset":305452,
			"target":34962
		},
		{
			"buffer":0,
			"byteLength":6144,
			"byteOffset":311596,
			"target":34962
		},
		{
			"buffer":0,
			"byteLength":4096,
			"byteOffset":317740,
			"target":34962
		},
		{
			"buffer":0,
			"byteLength":3288,
			"byteOffset":321836,
			"target":34963
		},
		{
			"buffer":0,
			"byteLength":104,
			"byteOffset":325124,
			"target":34962
		},
		{
			"buffer":0,
			"byteLength":156,
			"byteOffset":325228,
			"target":34962
		},
		{
			"buffer":0,
			"byteLength":156,
			"byteOffset":325384,
			"target":34962
		},
		{
			"buffer":0,
			"byteLength":104,
			"byteOffset":325540,
			"target":34962
		},
		{
			"buffer":0,
			"byteLength":66,
			"byteOffset":325644,
			"target":34963
		},
		{
			"buffer":0,
			"byteLength":1248,
			"byteOffset":325712,
			"target":34962
		},
		{
			"buffer":0,
			"byteLength":1248,
			"byteOffset":326960,
			"target":34962
		},
		{
			"buffer":0,
			"byteLength":832,
			"byteOffset":328208,
			"target":34962
		},
		{
			"buffer":0,
			"byteLength":504,
			"byteOffset":329040,
			"target":34963
		},
		{
			"buffer":0,
			"byteLength":192,
			"byteOffset":329544,
			"target":34962
		},
		{
			"buffer":0,
			"byteLength":288,
			"byteOffset":329736,
			"target":34962
		},
		{
			"buffer":0,
			"byteLength":288,
			"byteOffset":330024,
			"target":34962
		},
		{
			"buffer":0,
			"byteLength":192,
			"byteOffset":330312,
			"target":34962
		},
		{
			"buffer":0,
			"byteLength":144,
			"byteOffset":330504,
			"target":34963
		},
		{
			"buffer":0,
			"byteLength":1320,
			"byteOffset":330648,
			"target":34962
		},
		{
			"buffer":0,
			"byteLength":1320,
			"byteOffset":331968,
			"target":34962
		},
		{
			"buffer":0,
			"byteLength":880,
			"byteOffset":333288,
			"target":34962
		},
		{
			"buffer":0,
			"byteLength":456,
			"byteOffset":334168,
			"target":34963
		},
		{
			"buffer":0,
			"byteLength":11712,
			"byteOffset":334624,
			"target":34962
		},
		{
			"buffer":0,
			"byteLength":11712,
			"byteOffset":346336,
			"target":34962
		},
		{
			"buffer":0,
			"byteLength":7808,
			"byteOffset":358048,
			"target":34962
		},
		{
			"buffer":0,
			"byteLength":5760,
			"byteOffset":365856,
			"target":34963
		},
		{
			"buffer":0,
			"byteLength":3104,
			"byteOffset":371616,
			"target":34962
		},
		{
			"buffer":0,
			"byteLength":4656,
			"byteOffset":374720,
			"target":34962
		},
		{
			"buffer":0,
			"byteLength":4656,
			"byteOffset":379376,
			"target":34962
		},
		{
			"buffer":0,
			"byteLength":3104,
			"byteOffset":384032,
			"target":34962
		},
		{
			"buffer":0,
			"byteLength":2196,
			"byteOffset":387136,
			"target":34963
		},
		{
			"buffer":0,
			"byteLength":2144,
			"byteOffset":389332,
			"target":34962
		},
		{
			"buffer":0,
			"byteLength":3216,
			"byteOffset":391476,
			"target":34962
		},
		{
			"buffer":0,
			"byteLength":3216,
			"byteOffset":394692,
			"target":34962
		},
		{
			"buffer":0,
			"byteLength":2144,
			"byteOffset":397908,
			"target":34962
		},
		{
			"buffer":0,
			"byteLength":1008,
			"byteOffset":400052,
			"target":34963
		}
	],
	"buffers":[
		{
			"byteLength":401060,
			"uri":"Mech-Scythe.bin"
		}
	]
}
