{
	"asset":{
		"generator":"Khronos glTF Blender I/O v4.0.44",
		"version":"2.0"
	},
	"scene":0,
	"scenes":[
		{
			"name":"Scene",
			"nodes":[
				0,
				1,
				2,
				3,
				4,
				5,
				6,
				7,
				8,
				9,
				10
			]
		}
	],
	"nodes":[
		{
			"mesh":0,
			"name":"Camera Octo"
		},
		{
			"mesh":1,
			"name":"Camera Mount Octo"
		},
		{
			"mesh":2,
			"name":"MR_Propeller_Octo",
			"translation":[
				0.9350409507751465,
				0.04589487239718437,
				-0.0015433202497661114
			]
		},
		{
			"mesh":3,
			"name":"ML_Propeller_Octo",
			"translation":[
				-0.9334108829498291,
				0.04589487239718437,
				-0.0015433202497661114
			]
		},
		{
			"mesh":4,
			"name":"F_Propeller_Octo",
			"translation":[
				0.0008150339126586914,
				0.045894868671894073,
				0.9347959756851196
			]
		},
		{
			"mesh":5,
			"name":"B_Propeller_Octo",
			"translation":[
				0.0008150302455760539,
				0.045894868671894073,
				-0.937882661819458
			]
		},
		{
			"mesh":6,
			"name":"FR_Propeller_Octo",
			"translation":[
				0.6443794965744019,
				0.04589487612247467,
				0.652335524559021
			]
		},
		{
			"mesh":7,
			"name":"FL_Propeller_Octo",
			"translation":[
				-0.6427494287490845,
				0.04589487612247467,
				0.652335524559021
			]
		},
		{
			"mesh":8,
			"name":"BR_Propeller_Octo",
			"translation":[
				0.6443794965744019,
				0.04589487612247467,
				-0.6554222106933594
			]
		},
		{
			"mesh":9,
			"name":"BL_Propeller_Octo",
			"translation":[
				-0.6427494287490845,
				0.04589487612247467,
				-0.6554222106933594
			]
		},
		{
			"mesh":10,
			"name":"Octocopter_Body"
		}
	],
	"materials":[
		{
			"doubleSided":true,
			"name":"Octocopter_Body",
			"normalTexture":{
				"index":0,
				"scale":3.499999761581421
			},
			"pbrMetallicRoughness":{
				"baseColorTexture":{
					"index":1
				},
				"metallicRoughnessTexture":{
					"index":2
				},
				"roughnessFactor":0.30000001192092896
			}
		},
		{
			"doubleSided":true,
			"name":"Octocopter_Prop",
			"normalTexture":{
				"index":3,
				"scale":2
			},
			"pbrMetallicRoughness":{
				"baseColorTexture":{
					"index":4
				},
				"metallicRoughnessTexture":{
					"index":5
				},
				"roughnessFactor":0.5
			}
		}
	],
	"meshes":[
		{
			"name":"Mesh.025",
			"primitives":[
				{
					"attributes":{
						"COLOR_0":0,
						"POSITION":1,
						"NORMAL":2,
						"TEXCOORD_0":3
					},
					"indices":4,
					"material":0
				}
			]
		},
		{
			"name":"Mesh.026",
			"primitives":[
				{
					"attributes":{
						"COLOR_0":5,
						"POSITION":6,
						"NORMAL":7,
						"TEXCOORD_0":8
					},
					"indices":9,
					"material":0
				}
			]
		},
		{
			"name":"Mesh.028",
			"primitives":[
				{
					"attributes":{
						"COLOR_0":10,
						"POSITION":11,
						"NORMAL":12,
						"TEXCOORD_0":13
					},
					"indices":14,
					"material":1
				}
			]
		},
		{
			"name":"Mesh.029",
			"primitives":[
				{
					"attributes":{
						"COLOR_0":15,
						"POSITION":16,
						"NORMAL":17,
						"TEXCOORD_0":18
					},
					"indices":14,
					"material":1
				}
			]
		},
		{
			"name":"Mesh.030",
			"primitives":[
				{
					"attributes":{
						"COLOR_0":19,
						"POSITION":20,
						"NORMAL":21,
						"TEXCOORD_0":22
					},
					"indices":23,
					"material":1
				}
			]
		},
		{
			"name":"Mesh.031",
			"primitives":[
				{
					"attributes":{
						"COLOR_0":24,
						"POSITION":25,
						"NORMAL":26,
						"TEXCOORD_0":27
					},
					"indices":23,
					"material":1
				}
			]
		},
		{
			"name":"Mesh.002",
			"primitives":[
				{
					"attributes":{
						"COLOR_0":28,
						"POSITION":29,
						"NORMAL":30,
						"TEXCOORD_0":31
					},
					"indices":32,
					"material":1
				}
			]
		},
		{
			"name":"Mesh.010",
			"primitives":[
				{
					"attributes":{
						"COLOR_0":33,
						"POSITION":34,
						"NORMAL":35,
						"TEXCOORD_0":36
					},
					"indices":37,
					"material":1
				}
			]
		},
		{
			"name":"Mesh.012",
			"primitives":[
				{
					"attributes":{
						"COLOR_0":38,
						"POSITION":39,
						"NORMAL":40,
						"TEXCOORD_0":41
					},
					"indices":42,
					"material":1
				}
			]
		},
		{
			"name":"Mesh.014",
			"primitives":[
				{
					"attributes":{
						"COLOR_0":43,
						"POSITION":44,
						"NORMAL":45,
						"TEXCOORD_0":46
					},
					"indices":47,
					"material":1
				}
			]
		},
		{
			"name":"Mesh.036",
			"primitives":[
				{
					"attributes":{
						"COLOR_0":48,
						"POSITION":49,
						"NORMAL":50,
						"TEXCOORD_0":51
					},
					"indices":52,
					"material":0
				}
			]
		}
	],
	"textures":[
		{
			"sampler":0,
			"source":0
		},
		{
			"sampler":0,
			"source":1
		},
		{
			"sampler":0,
			"source":2
		},
		{
			"sampler":0,
			"source":3
		},
		{
			"sampler":0,
			"source":4
		},
		{
			"sampler":0,
			"source":5
		}
	],
	"images":[
		{
			"mimeType":"image/png",
			"name":"Octocopter_Main Body_Normal",
			"uri":"Octocopter_Main%20Body_Normal.png"
		},
		{
			"mimeType":"image/png",
			"name":"Octocopter_Main Body_BaseMap",
			"uri":"Octocopter_Main%20Body_BaseMap.png"
		},
		{
			"mimeType":"image/png",
			"name":"Octocopter_Main Body_MaskMap",
			"uri":"Octocopter_Main%20Body_MaskMap.png"
		},
		{
			"mimeType":"image/png",
			"name":"Octocopter_Propellers_Normal",
			"uri":"Octocopter_Propellers_Normal.png"
		},
		{
			"mimeType":"image/png",
			"name":"Octocopter_Propellers_BaseMap",
			"uri":"Octocopter_Propellers_BaseMap.png"
		},
		{
			"mimeType":"image/png",
			"name":"Octocopter_Propellers_MaskMap",
			"uri":"Octocopter_Propellers_MaskMap.png"
		}
	],
	"accessors":[
		{
			"bufferView":0,
			"componentType":5123,
			"count":360,
			"normalized":true,
			"type":"VEC4"
		},
		{
			"bufferView":1,
			"componentType":5126,
			"count":360,
			"max":[
				0.06747975945472717,
				-0.1880747228860855,
				0.10338432341814041
			],
			"min":[
				-0.10823344439268112,
				-0.3154922127723694,
				-0.026217810809612274
			],
			"type":"VEC3"
		},
		{
			"bufferView":2,
			"componentType":5126,
			"count":360,
			"type":"VEC3"
		},
		{
			"bufferView":3,
			"componentType":5126,
			"count":360,
			"type":"VEC2"
		},
		{
			"bufferView":4,
			"componentType":5123,
			"count":1260,
			"type":"SCALAR"
		},
		{
			"bufferView":5,
			"componentType":5123,
			"count":752,
			"normalized":true,
			"type":"VEC4"
		},
		{
			"bufferView":6,
			"componentType":5126,
			"count":752,
			"max":[
				0.09065080434083939,
				-0.08979380130767822,
				0.10147957503795624
			],
			"min":[
				-0.0907825380563736,
				-0.29635128378868103,
				-0.16942480206489563
			],
			"type":"VEC3"
		},
		{
			"bufferView":7,
			"componentType":5126,
			"count":752,
			"type":"VEC3"
		},
		{
			"bufferView":8,
			"componentType":5126,
			"count":752,
			"type":"VEC2"
		},
		{
			"bufferView":9,
			"componentType":5123,
			"count":2994,
			"type":"SCALAR"
		},
		{
			"bufferView":10,
			"componentType":5123,
			"count":535,
			"normalized":true,
			"type":"VEC4"
		},
		{
			"bufferView":11,
			"componentType":5126,
			"count":535,
			"max":[
				0.04534696415066719,
				0.11271075904369354,
				0.3698663115501404
			],
			"min":[
				-0.045346662402153015,
				-0.0008558339322917163,
				-0.3698670268058777
			],
			"type":"VEC3"
		},
		{
			"bufferView":12,
			"componentType":5126,
			"count":535,
			"type":"VEC3"
		},
		{
			"bufferView":13,
			"componentType":5126,
			"count":535,
			"type":"VEC2"
		},
		{
			"bufferView":14,
			"componentType":5123,
			"count":1926,
			"type":"SCALAR"
		},
		{
			"bufferView":15,
			"componentType":5123,
			"count":535,
			"normalized":true,
			"type":"VEC4"
		},
		{
			"bufferView":16,
			"componentType":5126,
			"count":535,
			"max":[
				0.04534696415066719,
				0.11271075904369354,
				0.3698663115501404
			],
			"min":[
				-0.045346662402153015,
				-0.0008558339322917163,
				-0.3698670268058777
			],
			"type":"VEC3"
		},
		{
			"bufferView":17,
			"componentType":5126,
			"count":535,
			"type":"VEC3"
		},
		{
			"bufferView":18,
			"componentType":5126,
			"count":535,
			"type":"VEC2"
		},
		{
			"bufferView":19,
			"componentType":5123,
			"count":535,
			"normalized":true,
			"type":"VEC4"
		},
		{
			"bufferView":20,
			"componentType":5126,
			"count":535,
			"max":[
				0.36986690759658813,
				0.11271075904369354,
				0.04534612223505974
			],
			"min":[
				-0.36986643075942993,
				-0.0008558264817111194,
				-0.04534749686717987
			],
			"type":"VEC3"
		},
		{
			"bufferView":21,
			"componentType":5126,
			"count":535,
			"type":"VEC3"
		},
		{
			"bufferView":22,
			"componentType":5126,
			"count":535,
			"type":"VEC2"
		},
		{
			"bufferView":23,
			"componentType":5123,
			"count":1926,
			"type":"SCALAR"
		},
		{
			"bufferView":24,
			"componentType":5123,
			"count":535,
			"normalized":true,
			"type":"VEC4"
		},
		{
			"bufferView":25,
			"componentType":5126,
			"count":535,
			"max":[
				0.36986690759658813,
				0.11271075904369354,
				0.04534612223505974
			],
			"min":[
				-0.36986643075942993,
				-0.0008558264817111194,
				-0.04534749686717987
			],
			"type":"VEC3"
		},
		{
			"bufferView":26,
			"componentType":5126,
			"count":535,
			"type":"VEC3"
		},
		{
			"bufferView":27,
			"componentType":5126,
			"count":535,
			"type":"VEC2"
		},
		{
			"bufferView":28,
			"componentType":5123,
			"count":535,
			"normalized":true,
			"type":"VEC4"
		},
		{
			"bufferView":29,
			"componentType":5126,
			"count":535,
			"max":[
				0.27390918135643005,
				0.11271075904369354,
				0.2641391158103943
			],
			"min":[
				-0.27390846610069275,
				-0.0008558339322917163,
				-0.26413995027542114
			],
			"type":"VEC3"
		},
		{
			"bufferView":30,
			"componentType":5126,
			"count":535,
			"type":"VEC3"
		},
		{
			"bufferView":31,
			"componentType":5126,
			"count":535,
			"type":"VEC2"
		},
		{
			"bufferView":32,
			"componentType":5123,
			"count":1926,
			"type":"SCALAR"
		},
		{
			"bufferView":33,
			"componentType":5123,
			"count":535,
			"normalized":true,
			"type":"VEC4"
		},
		{
			"bufferView":34,
			"componentType":5126,
			"count":535,
			"max":[
				0.2641400694847107,
				0.11271075904369354,
				0.27390822768211365
			],
			"min":[
				-0.26413899660110474,
				-0.0008558264817111194,
				-0.27390941977500916
			],
			"type":"VEC3"
		},
		{
			"bufferView":35,
			"componentType":5126,
			"count":535,
			"type":"VEC3"
		},
		{
			"bufferView":36,
			"componentType":5126,
			"count":535,
			"type":"VEC2"
		},
		{
			"bufferView":37,
			"componentType":5123,
			"count":1926,
			"type":"SCALAR"
		},
		{
			"bufferView":38,
			"componentType":5123,
			"count":535,
			"normalized":true,
			"type":"VEC4"
		},
		{
			"bufferView":39,
			"componentType":5126,
			"count":535,
			"max":[
				0.26414015889167786,
				0.11271075904369354,
				0.2739086449146271
			],
			"min":[
				-0.2641389071941376,
				-0.0008558264817111194,
				-0.2739090025424957
			],
			"type":"VEC3"
		},
		{
			"bufferView":40,
			"componentType":5126,
			"count":535,
			"type":"VEC3"
		},
		{
			"bufferView":41,
			"componentType":5126,
			"count":535,
			"type":"VEC2"
		},
		{
			"bufferView":42,
			"componentType":5123,
			"count":1926,
			"type":"SCALAR"
		},
		{
			"bufferView":43,
			"componentType":5123,
			"count":535,
			"normalized":true,
			"type":"VEC4"
		},
		{
			"bufferView":44,
			"componentType":5126,
			"count":535,
			"max":[
				0.2739093601703644,
				0.11271075904369354,
				0.2641393840312958
			],
			"min":[
				-0.2739082872867584,
				-0.0008558190311305225,
				-0.26413968205451965
			],
			"type":"VEC3"
		},
		{
			"bufferView":45,
			"componentType":5126,
			"count":535,
			"type":"VEC3"
		},
		{
			"bufferView":46,
			"componentType":5126,
			"count":535,
			"type":"VEC2"
		},
		{
			"bufferView":47,
			"componentType":5123,
			"count":1926,
			"type":"SCALAR"
		},
		{
			"bufferView":48,
			"componentType":5123,
			"count":9129,
			"normalized":true,
			"type":"VEC4"
		},
		{
			"bufferView":49,
			"componentType":5126,
			"count":9129,
			"max":[
				1.000125765800476,
				0.14286744594573975,
				0.9998807311058044
			],
			"min":[
				-0.9984956979751587,
				-0.336922287940979,
				-1.002967357635498
			],
			"type":"VEC3"
		},
		{
			"bufferView":50,
			"componentType":5126,
			"count":9129,
			"type":"VEC3"
		},
		{
			"bufferView":51,
			"componentType":5126,
			"count":9129,
			"type":"VEC2"
		},
		{
			"bufferView":52,
			"componentType":5123,
			"count":36732,
			"type":"SCALAR"
		}
	],
	"bufferViews":[
		{
			"buffer":0,
			"byteLength":2880,
			"byteOffset":0,
			"target":34962
		},
		{
			"buffer":0,
			"byteLength":4320,
			"byteOffset":2880,
			"target":34962
		},
		{
			"buffer":0,
			"byteLength":4320,
			"byteOffset":7200,
			"target":34962
		},
		{
			"buffer":0,
			"byteLength":2880,
			"byteOffset":11520,
			"target":34962
		},
		{
			"buffer":0,
			"byteLength":2520,
			"byteOffset":14400,
			"target":34963
		},
		{
			"buffer":0,
			"byteLength":6016,
			"byteOffset":16920,
			"target":34962
		},
		{
			"buffer":0,
			"byteLength":9024,
			"byteOffset":22936,
			"target":34962
		},
		{
			"buffer":0,
			"byteLength":9024,
			"byteOffset":31960,
			"target":34962
		},
		{
			"buffer":0,
			"byteLength":6016,
			"byteOffset":40984,
			"target":34962
		},
		{
			"buffer":0,
			"byteLength":5988,
			"byteOffset":47000,
			"target":34963
		},
		{
			"buffer":0,
			"byteLength":4280,
			"byteOffset":52988,
			"target":34962
		},
		{
			"buffer":0,
			"byteLength":6420,
			"byteOffset":57268,
			"target":34962
		},
		{
			"buffer":0,
			"byteLength":6420,
			"byteOffset":63688,
			"target":34962
		},
		{
			"buffer":0,
			"byteLength":4280,
			"byteOffset":70108,
			"target":34962
		},
		{
			"buffer":0,
			"byteLength":3852,
			"byteOffset":74388,
			"target":34963
		},
		{
			"buffer":0,
			"byteLength":4280,
			"byteOffset":78240,
			"target":34962
		},
		{
			"buffer":0,
			"byteLength":6420,
			"byteOffset":82520,
			"target":34962
		},
		{
			"buffer":0,
			"byteLength":6420,
			"byteOffset":88940,
			"target":34962
		},
		{
			"buffer":0,
			"byteLength":4280,
			"byteOffset":95360,
			"target":34962
		},
		{
			"buffer":0,
			"byteLength":4280,
			"byteOffset":99640,
			"target":34962
		},
		{
			"buffer":0,
			"byteLength":6420,
			"byteOffset":103920,
			"target":34962
		},
		{
			"buffer":0,
			"byteLength":6420,
			"byteOffset":110340,
			"target":34962
		},
		{
			"buffer":0,
			"byteLength":4280,
			"byteOffset":116760,
			"target":34962
		},
		{
			"buffer":0,
			"byteLength":3852,
			"byteOffset":121040,
			"target":34963
		},
		{
			"buffer":0,
			"byteLength":4280,
			"byteOffset":124892,
			"target":34962
		},
		{
			"buffer":0,
			"byteLength":6420,
			"byteOffset":129172,
			"target":34962
		},
		{
			"buffer":0,
			"byteLength":6420,
			"byteOffset":135592,
			"target":34962
		},
		{
			"buffer":0,
			"byteLength":4280,
			"byteOffset":142012,
			"target":34962
		},
		{
			"buffer":0,
			"byteLength":4280,
			"byteOffset":146292,
			"target":34962
		},
		{
			"buffer":0,
			"byteLength":6420,
			"byteOffset":150572,
			"target":34962
		},
		{
			"buffer":0,
			"byteLength":6420,
			"byteOffset":156992,
			"target":34962
		},
		{
			"buffer":0,
			"byteLength":4280,
			"byteOffset":163412,
			"target":34962
		},
		{
			"buffer":0,
			"byteLength":3852,
			"byteOffset":167692,
			"target":34963
		},
		{
			"buffer":0,
			"byteLength":4280,
			"byteOffset":171544,
			"target":34962
		},
		{
			"buffer":0,
			"byteLength":6420,
			"byteOffset":175824,
			"target":34962
		},
		{
			"buffer":0,
			"byteLength":6420,
			"byteOffset":182244,
			"target":34962
		},
		{
			"buffer":0,
			"byteLength":4280,
			"byteOffset":188664,
			"target":34962
		},
		{
			"buffer":0,
			"byteLength":3852,
			"byteOffset":192944,
			"target":34963
		},
		{
			"buffer":0,
			"byteLength":4280,
			"byteOffset":196796,
			"target":34962
		},
		{
			"buffer":0,
			"byteLength":6420,
			"byteOffset":201076,
			"target":34962
		},
		{
			"buffer":0,
			"byteLength":6420,
			"byteOffset":207496,
			"target":34962
		},
		{
			"buffer":0,
			"byteLength":4280,
			"byteOffset":213916,
			"target":34962
		},
		{
			"buffer":0,
			"byteLength":3852,
			"byteOffset":218196,
			"target":34963
		},
		{
			"buffer":0,
			"byteLength":4280,
			"byteOffset":222048,
			"target":34962
		},
		{
			"buffer":0,
			"byteLength":6420,
			"byteOffset":226328,
			"target":34962
		},
		{
			"buffer":0,
			"byteLength":6420,
			"byteOffset":232748,
			"target":34962
		},
		{
			"buffer":0,
			"byteLength":4280,
			"byteOffset":239168,
			"target":34962
		},
		{
			"buffer":0,
			"byteLength":3852,
			"byteOffset":243448,
			"target":34963
		},
		{
			"buffer":0,
			"byteLength":73032,
			"byteOffset":247300,
			"target":34962
		},
		{
			"buffer":0,
			"byteLength":109548,
			"byteOffset":320332,
			"target":34962
		},
		{
			"buffer":0,
			"byteLength":109548,
			"byteOffset":429880,
			"target":34962
		},
		{
			"buffer":0,
			"byteLength":73032,
			"byteOffset":539428,
			"target":34962
		},
		{
			"buffer":0,
			"byteLength":73464,
			"byteOffset":612460,
			"target":34963
		}
	],
	"samplers":[
		{
			"magFilter":9729,
			"minFilter":9987
		}
	],
	"buffers":[
		{
			"byteLength":685924,
			"uri":"Octocopter.bin"
		}
	]
}
