{
	"asset":{
		"generator":"Khronos glTF Blender I/O v3.6.27",
		"version":"2.0"
	},
	"extensionsUsed":[
		"KHR_materials_variants"
	],
	"extensionsRequired":[
		"KHR_materials_variants"
	],
	"extensions":{
		"KHR_materials_variants":{
			"variants":[
				{
					"name":"White"
				},
				{
					"name":"Black"
				}
			]
		}
	},
	"scene":0,
	"scenes":[
		{
			"name":"Scene",
			"nodes":[
				0,
				1,
				2,
				3,
				4,
				5,
				6,
				7,
				8,
				9,
				10,
				11
			]
		}
	],
	"nodes":[
		{
			"mesh":0,
			"name":"Front_Right_Wing_low",
			"translation":[
				0,
				-0.20660419762134552,
				0.9793004393577576
			]
		},
		{
			"mesh":1,
			"name":"Front_Left_Wing_low",
			"translation":[
				0,
				-0.19208529591560364,
				0.9793004393577576
			]
		},
		{
			"mesh":2,
			"name":"Back_Right_Wing_low",
			"translation":[
				0,
				-0.16578291356563568,
				-0.7227410674095154
			]
		},
		{
			"mesh":3,
			"name":"Tail_Wing_low",
			"translation":[
				-0.13200289011001587,
				-0.012784253805875778,
				-0.7015448808670044
			]
		},
		{
			"mesh":4,
			"name":"Camera_low",
			"translation":[
				0,
				-0.04799706116318703,
				1.6331229209899902
			]
		},
		{
			"mesh":5,
			"name":"Camera_Brace_low",
			"translation":[
				0,
				-0.04799706116318703,
				1.6331229209899902
			]
		},
		{
			"mesh":6,
			"name":"Tail_Propeller_low",
			"translation":[
				4.6582918002968654e-05,
				-0.00019587991118896753,
				-0.9654058814048767
			]
		},
		{
			"mesh":7,
			"name":"Kickstand_low",
			"translation":[
				0.07383041828870773,
				-0.19568867981433868,
				1.1967192888259888
			]
		},
		{
			"mesh":8,
			"name":"Antennae_low",
			"translation":[
				-0.06904321163892746,
				-0.18405576050281525,
				1.5796195268630981
			]
		},
		{
			"mesh":9,
			"name":"Metal_Ring_low",
			"translation":[
				0,
				0.005209093913435936,
				-0.5382731556892395
			]
		},
		{
			"mesh":10,
			"name":"Back_Left_Wing_low",
			"translation":[
				-4.128455839236267e-05,
				-0.13991183042526245,
				-0.7226440906524658
			]
		},
		{
			"mesh":11,
			"name":"Body_Flat_low"
		}
	],
	"materials":[
		{
			"doubleSided":true,
			"name":"Swtichblade_White",
			"normalTexture":{
				"index":0
			},
			"pbrMetallicRoughness":{
				"baseColorTexture":{
					"index":1
				},
				"metallicRoughnessTexture":{
					"index":2
				},
				"roughnessFactor":0.4000000059604645
			}
		},
		{
			"doubleSided":true,
			"name":"Switchblade_Black",
			"normalTexture":{
				"index":3
			},
			"pbrMetallicRoughness":{
				"baseColorTexture":{
					"index":4
				},
				"metallicRoughnessTexture":{
					"index":5
				},
				"roughnessFactor":0.4000000059604645
			}
		}
	],
	"meshes":[
		{
			"name":"Cylinder.002",
			"primitives":[
				{
					"attributes":{
						"POSITION":0,
						"NORMAL":1,
						"TEXCOORD_0":2
					},
					"indices":3,
					"material":0
				}
			]
		},
		{
			"name":"Cylinder.003",
			"primitives":[
				{
					"attributes":{
						"POSITION":4,
						"NORMAL":5,
						"TEXCOORD_0":6
					},
					"indices":7,
					"material":0
				}
			]
		},
		{
			"name":"Cylinder.005",
			"primitives":[
				{
					"attributes":{
						"POSITION":8,
						"NORMAL":9,
						"TEXCOORD_0":10
					},
					"indices":11,
					"material":0
				}
			]
		},
		{
			"name":"Cylinder.010",
			"primitives":[
				{
					"attributes":{
						"POSITION":12,
						"NORMAL":13,
						"TEXCOORD_0":14
					},
					"indices":15,
					"material":0
				}
			]
		},
		{
			"name":"Sphere.001",
			"primitives":[
				{
					"attributes":{
						"POSITION":16,
						"NORMAL":17,
						"TEXCOORD_0":18
					},
					"extensions":{
						"KHR_materials_variants":{
							"mappings":[
								{
									"material":0,
									"variants":[
										0
									]
								},
								{
									"material":1,
									"variants":[
										1
									]
								}
							]
						}
					},
					"indices":19,
					"material":0
				}
			]
		},
		{
			"name":"Sphere.003",
			"primitives":[
				{
					"attributes":{
						"POSITION":20,
						"NORMAL":21,
						"TEXCOORD_0":22
					},
					"indices":23,
					"material":1
				}
			]
		},
		{
			"name":"Cylinder.015",
			"primitives":[
				{
					"attributes":{
						"POSITION":24,
						"NORMAL":25,
						"TEXCOORD_0":26
					},
					"extensions":{
						"KHR_materials_variants":{
							"mappings":[
								{
									"material":0,
									"variants":[
										0
									]
								},
								{
									"material":1,
									"variants":[
										1
									]
								}
							]
						}
					},
					"indices":27,
					"material":0
				}
			]
		},
		{
			"name":"Cube.004",
			"primitives":[
				{
					"attributes":{
						"POSITION":28,
						"NORMAL":29,
						"TEXCOORD_0":30
					},
					"indices":31,
					"material":0
				}
			]
		},
		{
			"name":"Cylinder.040",
			"primitives":[
				{
					"attributes":{
						"POSITION":32,
						"NORMAL":33,
						"TEXCOORD_0":34
					},
					"indices":35,
					"material":0
				}
			]
		},
		{
			"name":"Cylinder.042",
			"primitives":[
				{
					"attributes":{
						"POSITION":36,
						"NORMAL":37,
						"TEXCOORD_0":38
					},
					"indices":39,
					"material":0
				}
			]
		},
		{
			"name":"Cylinder.043",
			"primitives":[
				{
					"attributes":{
						"POSITION":40,
						"NORMAL":41,
						"TEXCOORD_0":42
					},
					"indices":43,
					"material":0
				}
			]
		},
		{
			"name":"Cylinder.044",
			"primitives":[
				{
					"attributes":{
						"POSITION":44,
						"NORMAL":45,
						"TEXCOORD_0":46
					},
					"extensions":{
						"KHR_materials_variants":{
							"mappings":[
								{
									"material":0,
									"variants":[
										0
									]
								},
								{
									"material":1,
									"variants":[
										1
									]
								}
							]
						}
					},
					"indices":47,
					"material":0
				}
			]
		}
	],
	"textures":[
		{
			"sampler":0,
			"source":0
		},
		{
			"sampler":0,
			"source":1
		},
		{
			"sampler":0,
			"source":2
		},
		{
			"sampler":0,
			"source":3
		},
		{
			"sampler":0,
			"source":4
		},
		{
			"sampler":0,
			"source":5
		}
	],
	"images":[
		{
			"mimeType":"image/png",
			"name":"Switchblade_600_Normal",
			"uri":"Switchblade_600_Normal.png"
		},
		{
			"mimeType":"image/png",
			"name":"Switchblade_600_BaseMap",
			"uri":"Switchblade_600_BaseMap.png"
		},
		{
			"mimeType":"image/png",
			"name":"Switchblade_600_MaskMap",
			"uri":"Switchblade_600_MaskMap.png"
		},
		{
			"mimeType":"image/png",
			"name":"Switchblade_600_Black_Normal",
			"uri":"Switchblade_600_Black_Normal.png"
		},
		{
			"mimeType":"image/png",
			"name":"Switchblade_600_Black_BaseMap",
			"uri":"Switchblade_600_Black_BaseMap.png"
		},
		{
			"mimeType":"image/png",
			"name":"Switchblade_600_Black_MaskMap",
			"uri":"Switchblade_600_Black_MaskMap.png"
		}
	],
	"accessors":[
		{
			"bufferView":0,
			"componentType":5126,
			"count":210,
			"max":[
				1.8000000715255737,
				0.006736272946000099,
				0.12000001221895218
			],
			"min":[
				-0.11695519089698792,
				-0.006736272946000099,
				-0.12000001221895218
			],
			"type":"VEC3"
		},
		{
			"bufferView":1,
			"componentType":5126,
			"count":210,
			"type":"VEC3"
		},
		{
			"bufferView":2,
			"componentType":5126,
			"count":210,
			"type":"VEC2"
		},
		{
			"bufferView":3,
			"componentType":5123,
			"count":948,
			"type":"SCALAR"
		},
		{
			"bufferView":4,
			"componentType":5126,
			"count":210,
			"max":[
				0.11695519089698792,
				0.006736272946000099,
				0.12000018358230591
			],
			"min":[
				-1.8000000715255737,
				-0.006736272946000099,
				-0.12000018358230591
			],
			"type":"VEC3"
		},
		{
			"bufferView":5,
			"componentType":5126,
			"count":210,
			"type":"VEC3"
		},
		{
			"bufferView":6,
			"componentType":5126,
			"count":210,
			"type":"VEC2"
		},
		{
			"bufferView":7,
			"componentType":5123,
			"count":948,
			"type":"SCALAR"
		},
		{
			"bufferView":8,
			"componentType":5126,
			"count":270,
			"max":[
				1.5599998235702515,
				0.012662867084145546,
				0.11994192749261856
			],
			"min":[
				-0.11960312724113464,
				-0.012662867084145546,
				-0.120058074593544
			],
			"type":"VEC3"
		},
		{
			"bufferView":9,
			"componentType":5126,
			"count":270,
			"type":"VEC3"
		},
		{
			"bufferView":10,
			"componentType":5126,
			"count":270,
			"type":"VEC2"
		},
		{
			"bufferView":11,
			"componentType":5123,
			"count":1068,
			"type":"SCALAR"
		},
		{
			"bufferView":12,
			"componentType":5126,
			"count":168,
			"max":[
				0.007996947504580021,
				1.0323433876037598,
				0.1061374843120575
			],
			"min":[
				-0.007996933534741402,
				-0.06567013263702393,
				-0.10613760352134705
			],
			"type":"VEC3"
		},
		{
			"bufferView":13,
			"componentType":5126,
			"count":168,
			"type":"VEC3"
		},
		{
			"bufferView":14,
			"componentType":5126,
			"count":168,
			"type":"VEC2"
		},
		{
			"bufferView":15,
			"componentType":5123,
			"count":444,
			"type":"SCALAR"
		},
		{
			"bufferView":16,
			"componentType":5126,
			"count":353,
			"max":[
				0.10551388561725616,
				0.1053394079208374,
				0.09410980343818665
			],
			"min":[
				-0.10551388561725616,
				-0.10533937811851501,
				-0.10770298540592194
			],
			"type":"VEC3"
		},
		{
			"bufferView":17,
			"componentType":5126,
			"count":353,
			"type":"VEC3"
		},
		{
			"bufferView":18,
			"componentType":5126,
			"count":353,
			"type":"VEC2"
		},
		{
			"bufferView":19,
			"componentType":5123,
			"count":1632,
			"type":"SCALAR"
		},
		{
			"bufferView":20,
			"componentType":5126,
			"count":299,
			"max":[
				0.10945285111665726,
				0.09423121064901352,
				0.0412282757461071
			],
			"min":[
				-0.10945285111665726,
				-0.10569802671670914,
				-0.1080315038561821
			],
			"type":"VEC3"
		},
		{
			"bufferView":21,
			"componentType":5126,
			"count":299,
			"type":"VEC3"
		},
		{
			"bufferView":22,
			"componentType":5126,
			"count":299,
			"type":"VEC2"
		},
		{
			"bufferView":23,
			"componentType":5123,
			"count":1248,
			"type":"SCALAR"
		},
		{
			"bufferView":24,
			"componentType":5126,
			"count":617,
			"max":[
				0.07664050161838531,
				0.0884990245103836,
				0.07467953860759735
			],
			"min":[
				-0.10512584447860718,
				-0.09357167035341263,
				-0.11206850409507751
			],
			"type":"VEC3"
		},
		{
			"bufferView":25,
			"componentType":5126,
			"count":617,
			"type":"VEC3"
		},
		{
			"bufferView":26,
			"componentType":5126,
			"count":617,
			"type":"VEC2"
		},
		{
			"bufferView":27,
			"componentType":5123,
			"count":1908,
			"type":"SCALAR"
		},
		{
			"bufferView":28,
			"componentType":5126,
			"count":68,
			"max":[
				0.0018551457906141877,
				0.022013025358319283,
				0.018973400816321373
			],
			"min":[
				-0.0018551457906141877,
				-0.24660389125347137,
				-0.012871972285211086
			],
			"type":"VEC3"
		},
		{
			"bufferView":29,
			"componentType":5126,
			"count":68,
			"type":"VEC3"
		},
		{
			"bufferView":30,
			"componentType":5126,
			"count":68,
			"type":"VEC2"
		},
		{
			"bufferView":31,
			"componentType":5123,
			"count":300,
			"type":"SCALAR"
		},
		{
			"bufferView":32,
			"componentType":5126,
			"count":103,
			"max":[
				0.008293316699564457,
				0.008293317630887032,
				0.1049293726682663
			],
			"min":[
				-0.008293316699564457,
				-0.008293314836919308,
				-0.06451170146465302
			],
			"type":"VEC3"
		},
		{
			"bufferView":33,
			"componentType":5126,
			"count":103,
			"type":"VEC3"
		},
		{
			"bufferView":34,
			"componentType":5126,
			"count":103,
			"type":"VEC2"
		},
		{
			"bufferView":35,
			"componentType":5123,
			"count":312,
			"type":"SCALAR"
		},
		{
			"bufferView":36,
			"componentType":5126,
			"count":180,
			"max":[
				0.1236552968621254,
				0.1090337485074997,
				0.06002053990960121
			],
			"min":[
				-0.1236552968621254,
				-0.12886415421962738,
				-0.025545500218868256
			],
			"type":"VEC3"
		},
		{
			"bufferView":37,
			"componentType":5126,
			"count":180,
			"type":"VEC3"
		},
		{
			"bufferView":38,
			"componentType":5126,
			"count":180,
			"type":"VEC2"
		},
		{
			"bufferView":39,
			"componentType":5123,
			"count":588,
			"type":"SCALAR"
		},
		{
			"bufferView":40,
			"componentType":5126,
			"count":270,
			"max":[
				0.1196444183588028,
				0.012662867084145546,
				0.11999078840017319
			],
			"min":[
				-1.559958577156067,
				-0.012662867084145546,
				-0.12000919878482819
			],
			"type":"VEC3"
		},
		{
			"bufferView":41,
			"componentType":5126,
			"count":270,
			"type":"VEC3"
		},
		{
			"bufferView":42,
			"componentType":5126,
			"count":270,
			"type":"VEC2"
		},
		{
			"bufferView":43,
			"componentType":5123,
			"count":1068,
			"type":"SCALAR"
		},
		{
			"bufferView":44,
			"componentType":5126,
			"count":1020,
			"max":[
				0.15278998017311096,
				0.13839936256408691,
				1.6078795194625854
			],
			"min":[
				-0.15278996527194977,
				-0.23864324390888214,
				-0.9003723859786987
			],
			"type":"VEC3"
		},
		{
			"bufferView":45,
			"componentType":5126,
			"count":1020,
			"type":"VEC3"
		},
		{
			"bufferView":46,
			"componentType":5126,
			"count":1020,
			"type":"VEC2"
		},
		{
			"bufferView":47,
			"componentType":5123,
			"count":3489,
			"type":"SCALAR"
		}
	],
	"bufferViews":[
		{
			"buffer":0,
			"byteLength":2520,
			"byteOffset":0,
			"target":34962
		},
		{
			"buffer":0,
			"byteLength":2520,
			"byteOffset":2520,
			"target":34962
		},
		{
			"buffer":0,
			"byteLength":1680,
			"byteOffset":5040,
			"target":34962
		},
		{
			"buffer":0,
			"byteLength":1896,
			"byteOffset":6720,
			"target":34963
		},
		{
			"buffer":0,
			"byteLength":2520,
			"byteOffset":8616,
			"target":34962
		},
		{
			"buffer":0,
			"byteLength":2520,
			"byteOffset":11136,
			"target":34962
		},
		{
			"buffer":0,
			"byteLength":1680,
			"byteOffset":13656,
			"target":34962
		},
		{
			"buffer":0,
			"byteLength":1896,
			"byteOffset":15336,
			"target":34963
		},
		{
			"buffer":0,
			"byteLength":3240,
			"byteOffset":17232,
			"target":34962
		},
		{
			"buffer":0,
			"byteLength":3240,
			"byteOffset":20472,
			"target":34962
		},
		{
			"buffer":0,
			"byteLength":2160,
			"byteOffset":23712,
			"target":34962
		},
		{
			"buffer":0,
			"byteLength":2136,
			"byteOffset":25872,
			"target":34963
		},
		{
			"buffer":0,
			"byteLength":2016,
			"byteOffset":28008,
			"target":34962
		},
		{
			"buffer":0,
			"byteLength":2016,
			"byteOffset":30024,
			"target":34962
		},
		{
			"buffer":0,
			"byteLength":1344,
			"byteOffset":32040,
			"target":34962
		},
		{
			"buffer":0,
			"byteLength":888,
			"byteOffset":33384,
			"target":34963
		},
		{
			"buffer":0,
			"byteLength":4236,
			"byteOffset":34272,
			"target":34962
		},
		{
			"buffer":0,
			"byteLength":4236,
			"byteOffset":38508,
			"target":34962
		},
		{
			"buffer":0,
			"byteLength":2824,
			"byteOffset":42744,
			"target":34962
		},
		{
			"buffer":0,
			"byteLength":3264,
			"byteOffset":45568,
			"target":34963
		},
		{
			"buffer":0,
			"byteLength":3588,
			"byteOffset":48832,
			"target":34962
		},
		{
			"buffer":0,
			"byteLength":3588,
			"byteOffset":52420,
			"target":34962
		},
		{
			"buffer":0,
			"byteLength":2392,
			"byteOffset":56008,
			"target":34962
		},
		{
			"buffer":0,
			"byteLength":2496,
			"byteOffset":58400,
			"target":34963
		},
		{
			"buffer":0,
			"byteLength":7404,
			"byteOffset":60896,
			"target":34962
		},
		{
			"buffer":0,
			"byteLength":7404,
			"byteOffset":68300,
			"target":34962
		},
		{
			"buffer":0,
			"byteLength":4936,
			"byteOffset":75704,
			"target":34962
		},
		{
			"buffer":0,
			"byteLength":3816,
			"byteOffset":80640,
			"target":34963
		},
		{
			"buffer":0,
			"byteLength":816,
			"byteOffset":84456,
			"target":34962
		},
		{
			"buffer":0,
			"byteLength":816,
			"byteOffset":85272,
			"target":34962
		},
		{
			"buffer":0,
			"byteLength":544,
			"byteOffset":86088,
			"target":34962
		},
		{
			"buffer":0,
			"byteLength":600,
			"byteOffset":86632,
			"target":34963
		},
		{
			"buffer":0,
			"byteLength":1236,
			"byteOffset":87232,
			"target":34962
		},
		{
			"buffer":0,
			"byteLength":1236,
			"byteOffset":88468,
			"target":34962
		},
		{
			"buffer":0,
			"byteLength":824,
			"byteOffset":89704,
			"target":34962
		},
		{
			"buffer":0,
			"byteLength":624,
			"byteOffset":90528,
			"target":34963
		},
		{
			"buffer":0,
			"byteLength":2160,
			"byteOffset":91152,
			"target":34962
		},
		{
			"buffer":0,
			"byteLength":2160,
			"byteOffset":93312,
			"target":34962
		},
		{
			"buffer":0,
			"byteLength":1440,
			"byteOffset":95472,
			"target":34962
		},
		{
			"buffer":0,
			"byteLength":1176,
			"byteOffset":96912,
			"target":34963
		},
		{
			"buffer":0,
			"byteLength":3240,
			"byteOffset":98088,
			"target":34962
		},
		{
			"buffer":0,
			"byteLength":3240,
			"byteOffset":101328,
			"target":34962
		},
		{
			"buffer":0,
			"byteLength":2160,
			"byteOffset":104568,
			"target":34962
		},
		{
			"buffer":0,
			"byteLength":2136,
			"byteOffset":106728,
			"target":34963
		},
		{
			"buffer":0,
			"byteLength":12240,
			"byteOffset":108864,
			"target":34962
		},
		{
			"buffer":0,
			"byteLength":12240,
			"byteOffset":121104,
			"target":34962
		},
		{
			"buffer":0,
			"byteLength":8160,
			"byteOffset":133344,
			"target":34962
		},
		{
			"buffer":0,
			"byteLength":6978,
			"byteOffset":141504,
			"target":34963
		}
	],
	"samplers":[
		{
			"magFilter":9729,
			"minFilter":9987
		}
	],
	"buffers":[
		{
			"byteLength":148484,
			"uri":"Switchblade600.bin"
		}
	]
}
